<svg width="167" height="48" viewBox="0 0 167 48" fill="none" xmlns="http://www.w3.org/2000/svg">
<g clip-path="url(#clip0_3092_32)">
<path d="M75.8583 5.29248H80.7653C81.8901 8.18481 83.0149 11.0906 84.143 13.993C84.1923 13.993 84.2384 13.993 84.2877 13.9963C85.4388 11.104 86.5899 8.21168 87.7476 5.29584H92.421V19.1394H88.8888V9.65616C88.8329 9.64273 88.777 9.62929 88.7244 9.61585C87.4285 12.8374 86.1327 16.0623 84.8336 19.3006H82.4229C81.16 16.0959 79.8938 12.8743 78.6243 9.65281C78.5881 9.65281 78.5519 9.65952 78.5157 9.65952V19.1259H75.8583V5.29248Z" fill="#011638"/>
<path d="M7.35793 26.6167V32.8717H12.1597V26.6167H15.5373V42.5866H12.1827V36.0294H7.38095V42.5732H4V26.6167H7.35793Z" fill="#011638"/>
<path d="M113.022 5.31928C114.535 8.3191 116.051 11.3223 117.568 14.3221C117.62 14.312 117.673 14.302 117.726 14.2919V5.31592H120.37V19.1359H116.058C114.519 16.126 112.96 13.0725 111.398 10.0189L111.25 10.0424V19.1494H108.629V5.31928H113.026H113.022Z" fill="#011638"/>
<path d="M70.8724 42.5866H67.5276C67.5276 42.2641 67.5276 41.9988 67.5276 41.73C67.5276 39.5767 67.5309 37.4268 67.5244 35.2735C67.5244 34.8402 67.498 34.4035 67.4356 33.9735C67.2777 32.8582 66.5015 32.3745 65.4326 32.7037C64.5381 32.9791 64.0184 33.7148 64.0151 34.7931C64.0053 37.0842 64.0151 39.3718 64.0086 41.6628C64.0086 41.9551 63.979 42.244 63.9592 42.5866H60.7361V26.6436H63.9724V31.0879C64.2322 30.9602 64.3736 30.9132 64.4854 30.8292C65.4425 30.1036 66.5311 29.9188 67.6822 30.0566C69.3267 30.2548 70.5402 31.239 70.6455 32.9321C70.8461 36.12 70.8099 39.3248 70.8757 42.5866H70.8724Z" fill="#011638"/>
<path d="M73.1976 16.5289V19.1424H63.3179V5.3291H73.043V7.73434H67.0573V10.9256H72.2406V13.2167H67.0442V16.5289H73.1976Z" fill="#011638"/>
<path d="M105.81 5.3125V7.73453H99.742V10.909H104.991V13.2236H99.7519V16.5627H105.948V19.1392H96.0815V5.3125H105.81Z" fill="#011638"/>
<path d="M40.536 42.6003H37.9345C37.8523 42.2408 37.7733 41.8914 37.6714 41.4514C37.5168 41.579 37.3853 41.6731 37.2734 41.7873C35.2935 43.8163 31.6133 43.2251 30.5082 40.5847C29.4163 37.9745 29.515 35.3073 30.8306 32.7643C31.4653 31.5348 32.5177 30.7521 33.8168 30.3524C36.0796 29.657 38.2502 30.1475 40.536 30.9268V42.6003ZM37.1879 32.8483C35.4087 32.0454 33.9615 32.6703 33.432 34.4473C32.9913 35.922 33.0242 37.427 33.3531 38.9252C33.4024 39.1436 33.5011 39.3586 33.6129 39.5568C34.0438 40.3327 34.8331 40.6586 35.7573 40.4537C36.5334 40.2824 37.1583 39.6575 37.1748 38.8278C37.2175 36.8391 37.1879 34.8504 37.1879 32.8517V32.8483Z" fill="#011638"/>
<path d="M43.4926 18.9848V16.3142C43.9728 16.425 44.3938 16.5594 44.8279 16.6199C45.8507 16.7576 46.8736 16.8953 47.8997 16.9625C48.3108 16.9894 48.7449 16.8617 49.1528 16.7475C49.6132 16.6165 49.9487 16.3142 50.0177 15.8002C50.0835 15.2863 49.8434 14.8999 49.429 14.6513C49.0048 14.396 48.5542 14.1844 48.1102 13.9694C47.1169 13.4857 46.0908 13.0658 45.1338 12.5182C43.5222 11.5978 42.9138 10.113 43.2953 8.27211C43.5716 6.94184 44.43 6.12554 45.5975 5.59141C46.8637 5.01362 48.2089 4.92628 49.5639 5.04385C50.567 5.13119 51.5602 5.30252 52.6126 5.44361V8.05375C52.3265 7.97313 52.0798 7.90595 51.8365 7.83204C50.5966 7.46924 49.3468 7.2005 48.051 7.47596C47.8142 7.52635 47.5675 7.60361 47.3603 7.72791C46.6203 8.16797 46.6072 9.06825 47.3505 9.49152C48.0148 9.87112 48.7252 10.1667 49.4093 10.5161C50.271 10.9595 51.1392 11.3929 51.9746 11.8833C54.5037 13.3547 54.2077 17.2077 51.8398 18.4843C51.0998 18.884 50.2677 19.1998 49.4455 19.3375C47.4754 19.6634 45.5087 19.4786 43.4959 18.9814L43.4926 18.9848Z" fill="#011638"/>
<path d="M123.175 18.9848V16.3579C124.175 16.546 125.132 16.7979 126.099 16.8886C126.938 16.9659 127.799 16.9088 128.638 16.808C129.167 16.7442 129.608 16.415 129.69 15.8002C129.773 15.1889 129.434 14.7891 128.944 14.5405C128.201 14.1609 127.431 13.8451 126.684 13.4756C125.938 13.1061 125.168 12.7668 124.481 12.3032C122.261 10.8084 122.31 7.46254 124.543 5.99455C126.083 4.98341 127.806 4.91286 129.549 5.06403C130.44 5.14129 131.322 5.32269 132.259 5.46378V8.05042C131.996 7.97651 131.772 7.91605 131.549 7.84886C130.312 7.47934 129.062 7.2106 127.77 7.47262C127.53 7.51965 127.283 7.5902 127.072 7.71113C126.3 8.15455 126.28 9.07163 127.049 9.51841C127.615 9.84426 128.22 10.0962 128.802 10.3918C129.648 10.8184 130.499 11.2283 131.328 11.6885C132.785 12.4947 133.535 13.7175 133.394 15.4509C133.259 17.0801 132.397 18.1685 130.976 18.8001C130.388 19.0621 129.75 19.2704 129.115 19.3611C127.138 19.6432 125.178 19.4854 123.182 18.9915L123.175 18.9848Z" fill="#011638"/>
<path d="M90.03 42.5971H86.7938C86.7741 42.2948 86.7379 42.0294 86.7379 41.764C86.7346 39.567 86.7379 37.3667 86.7346 35.1698C86.7346 34.8708 86.7379 34.5718 86.7148 34.2762C86.6622 33.648 86.5767 32.9997 85.9058 32.7377C85.202 32.4656 84.5278 32.6201 83.9522 33.1139C83.4161 33.5741 83.2254 34.1889 83.2287 34.891C83.2352 37.2021 83.2287 39.5167 83.2287 41.8278C83.2287 42.0529 83.2287 42.2813 83.2287 42.5736H79.9003V30.4298H82.4525C82.5446 30.8531 82.6301 31.2461 82.7189 31.6358C82.7682 31.6728 82.8208 31.7097 82.8702 31.7467C82.9951 31.5619 83.0938 31.3436 83.255 31.1958C84.6692 29.8991 86.3005 29.6975 88.0271 30.3526C89.1881 30.7926 89.7307 31.7971 89.9412 32.9862C90.0234 33.4565 90.0662 33.9403 90.0695 34.4207C90.0826 36.8931 90.0761 39.3655 90.0728 41.8379C90.0728 42.063 90.053 42.2847 90.0366 42.5937L90.03 42.5971Z" fill="#011638"/>
<path d="M106.987 38.0452C107.191 39.614 108.306 40.5747 109.786 40.3765C110.724 40.2522 111.628 39.8928 112.694 39.6005C112.927 40.1481 113.23 40.8636 113.572 41.6766C112.953 41.9789 112.411 42.298 111.832 42.5197C110.385 43.074 108.885 43.1244 107.389 42.7683C105.767 42.382 104.6 41.3877 104.05 39.7752C103.287 37.5413 103.347 35.3108 104.383 33.1709C105.593 30.6649 108.333 29.4522 110.97 30.208C112.335 30.5977 113.177 31.498 113.361 32.9492C113.562 34.5281 113.105 35.8516 111.779 36.7754C110.549 37.6287 109.125 37.847 107.688 37.9915C107.468 38.015 107.247 38.025 106.987 38.0452ZM106.859 35.6433C107.984 35.5761 109.05 35.4955 109.938 34.7699C110.483 34.3231 110.645 33.527 110.352 32.9761C110.076 32.452 109.497 32.2706 108.757 32.4755C107.616 32.7913 106.797 34.1081 106.859 35.6467V35.6433Z" fill="#011638"/>
<path d="M95.5191 38.0519C95.6375 39.5603 96.8117 40.568 98.2982 40.3766C99.081 40.2758 99.8374 39.9398 100.604 39.6946C100.768 39.6442 100.916 39.5401 101.13 39.4292C101.436 40.1548 101.725 40.8401 102.041 41.5859C101.834 41.7371 101.669 41.8849 101.482 41.989C99.5743 43.0572 97.5615 43.2588 95.4862 42.6373C94.2661 42.2712 93.2959 41.4952 92.8025 40.2993C91.6547 37.5245 91.7435 34.7901 93.457 32.2639C94.8087 30.2719 97.5451 29.4791 99.7815 30.3021C101.021 30.759 101.725 31.6593 101.877 32.9895C102.048 34.4575 101.659 35.7173 100.472 36.6343C99.2191 37.6018 97.726 37.8235 96.2197 37.9848C95.9993 38.0083 95.7789 38.0251 95.5224 38.0452L95.5191 38.0519ZM95.404 35.6904C95.9763 35.5997 96.5222 35.5829 97.0188 35.4149C97.5582 35.2335 98.1075 34.9849 98.5547 34.6389C99.0678 34.2392 99.1402 33.4598 98.8507 32.9526C98.5778 32.4722 98.0483 32.2874 97.374 32.442C96.1506 32.7208 95.2593 34.1115 95.404 35.6904Z" fill="#011638"/>
<path d="M21.5461 38.0923C21.6513 39.8357 23.1412 40.568 24.3416 40.3732C25.2757 40.2254 26.1801 39.8828 27.2161 39.5905C27.4529 40.1515 27.7522 40.8502 28.0975 41.6632C27.5285 41.9521 27.0155 42.2611 26.4629 42.4828C25.0915 43.027 23.6641 43.1076 22.2236 42.8288C20.2503 42.4459 18.9578 41.2601 18.425 39.2882C17.8198 37.0375 17.9547 34.8371 19.1222 32.7846C20.4213 30.507 23.1182 29.4657 25.5914 30.2316C28.0383 30.9908 28.7849 34.2627 26.953 36.2144C26.1406 37.0778 25.1013 37.491 23.9864 37.716C23.1807 37.8773 22.3584 37.968 21.5461 38.0889V38.0923ZM21.2073 35.4653C21.2764 35.5258 21.3455 35.5863 21.4145 35.6467C22.3223 35.6098 23.2201 35.5023 24.0489 35.0622C24.2627 34.948 24.4666 34.7901 24.631 34.6087C25.0652 34.1384 25.1573 33.4531 24.881 32.9627C24.6146 32.4823 24.0851 32.3009 23.4109 32.442C22.8057 32.5663 22.2927 32.8787 22.0164 33.4195C21.6842 34.0712 21.4704 34.7834 21.204 35.4687L21.2073 35.4653Z" fill="#011638"/>
<path d="M58.1939 42.2204C56.4245 43.067 54.7011 43.3155 52.9448 42.506C52.0371 42.0861 51.6786 41.2093 51.649 40.2519C51.5833 38.1725 51.5832 36.0931 51.5536 34.0104C51.5504 33.7215 51.524 33.4292 51.5076 33.0832C50.9288 33.053 50.3993 33.0261 49.8138 32.9992V30.4126C50.3433 30.379 50.8729 30.3488 51.5372 30.3085V26.6133H54.8524V30.3521H57.9406V33.0261H54.9313C54.9116 33.3452 54.8853 33.567 54.8853 33.7887C54.8853 35.3675 54.882 36.9464 54.8853 38.5219C54.8853 38.8175 54.8984 39.1198 54.9609 39.4054C55.1155 40.1276 55.5003 40.4064 56.2271 40.3124C56.6218 40.262 57.0099 40.141 57.4868 40.0302C57.717 40.7491 57.9439 41.4478 58.1906 42.2171L58.1939 42.2204Z" fill="#011638"/>
<path d="M124.451 41.9248C124.777 41.1589 125.076 40.4501 125.408 39.6674C125.668 39.7715 125.888 39.8521 126.109 39.9428C126.99 40.309 127.895 40.5677 128.858 40.487C129.598 40.4266 130.042 40.0772 130.134 39.4927C130.243 38.7973 129.947 38.3136 129.177 38.0549C128.474 37.8198 127.747 37.6619 127.043 37.4301C125.375 36.8825 124.533 35.8143 124.471 34.2153C124.399 32.4114 125.191 31.071 126.806 30.4361C128.799 29.6501 130.713 29.9188 132.608 31.0509C132.269 31.8403 131.95 32.5827 131.618 33.362C131.193 33.1403 130.855 32.8817 130.48 32.7842C129.881 32.6331 129.26 32.5289 128.645 32.5189C128.174 32.5121 127.789 32.801 127.684 33.3284C127.579 33.8559 127.757 34.2926 128.201 34.568C128.483 34.7461 128.806 34.8636 129.125 34.9711C129.848 35.2164 130.595 35.3978 131.305 35.6799C132.506 36.1569 133.272 37.027 133.39 38.3808C133.522 39.8891 133.177 41.2126 131.871 42.1062C130.476 43.0602 128.904 43.0804 127.322 42.8956C126.342 42.7814 125.385 42.5328 124.458 41.9214L124.451 41.9248Z" fill="#011638"/>
<path d="M43.4696 26.6371H46.7256C46.7421 26.9697 46.7651 27.262 46.7651 27.5542C46.7651 31.1251 46.7651 34.6994 46.7684 38.2703C46.7684 40.3194 47.1433 40.6016 49.11 40.0641C49.1692 40.0473 49.2383 40.0641 49.3863 40.0641C49.6001 40.7326 49.8171 41.4213 50.0638 42.1872C49.8073 42.3148 49.5836 42.4492 49.3435 42.5433C48.1365 43.0236 46.8933 43.1076 45.637 42.8187C44.407 42.5365 43.7295 41.7774 43.5584 40.5143C43.496 40.0608 43.4499 39.6039 43.4466 39.147C43.4368 35.2066 43.44 31.2696 43.44 27.3292C43.44 27.1242 43.4598 26.9227 43.4729 26.6338L43.4696 26.6371Z" fill="#011638"/>
<path d="M56.0068 5.29883H59.6771V19.139H56.0068V5.29883Z" fill="#011638"/>
<path d="M115.877 42.5802V30.4163H118.373C118.482 30.9 118.587 31.3602 118.722 31.9615C119.265 31.0478 119.873 30.3625 120.824 30.1274C121.731 29.9023 122.6 30.0367 123.514 30.4633C123.32 31.4106 123.132 32.3344 122.935 33.2918C122.557 33.1843 122.261 33.0869 121.958 33.0164C120.39 32.6502 119.337 33.443 119.255 35.0789C119.215 35.8314 119.245 36.5906 119.245 37.3431C119.245 38.8312 119.245 40.3194 119.245 41.8042C119.245 42.0494 119.222 42.2946 119.209 42.5768H115.88L115.877 42.5802Z" fill="#011638"/>
<path d="M76.9536 42.5934H73.7864V30.4497H76.9536V42.5934Z" fill="#011638"/>
<path d="M159.826 21.6285C161.569 21.6184 162.97 23.0058 163 24.7761C163.03 26.5364 161.645 27.9808 159.908 28.0044C158.132 28.0279 156.712 26.617 156.708 24.8265C156.705 23.0562 158.086 21.6419 159.823 21.6318L159.826 21.6285Z" fill="#011638"/>
<path d="M156.475 18.9378C156.475 20.2983 155.429 21.3733 154.097 21.3834C152.729 21.3934 151.65 20.2983 151.667 18.9244C151.683 17.5437 152.788 16.4318 154.117 16.462C155.439 16.4889 156.478 17.584 156.475 18.9412V18.9378Z" fill="#011638"/>
<path d="M156.472 30.712C156.472 32.0658 155.419 33.1609 154.104 33.1811C152.772 33.1979 151.634 32.0524 151.65 30.7154C151.667 29.3616 152.729 28.2665 154.035 28.2497C155.383 28.2329 156.472 29.3347 156.472 30.7154V30.712Z" fill="#011638"/>
<path d="M150.131 24.8564C150.118 25.8978 149.289 26.7343 148.279 26.7275C147.24 26.7208 146.421 25.8407 146.447 24.7657C146.473 23.7378 147.338 22.8946 148.335 22.9282C149.345 22.9584 150.144 23.8184 150.131 24.8598V24.8564Z" fill="#011638"/>
<path d="M148.305 14.93C147.276 14.9334 146.46 14.1204 146.45 13.0757C146.437 11.9906 147.253 11.1609 148.322 11.171C149.361 11.1811 150.144 11.9906 150.141 13.0555C150.134 14.1137 149.345 14.9266 148.309 14.93H148.305Z" fill="#011638"/>
<path d="M150.127 36.6408C150.114 37.6754 149.276 38.5186 148.269 38.5085C147.233 38.4985 146.418 37.615 146.444 36.54C146.47 35.502 147.319 34.6857 148.335 34.7126C149.354 34.7428 150.141 35.5893 150.127 36.6408Z" fill="#011638"/>
<path d="M75.3288 28.2696C74.2599 28.2596 73.5693 27.5676 73.5923 26.5295C73.6153 25.5386 74.3981 24.7995 75.4045 24.8264C76.4207 24.8533 77.1706 25.6158 77.1541 26.6034C77.1377 27.6112 76.401 28.2831 75.3288 28.2696Z" fill="#011638"/>
<path d="M143.925 18.9612C143.915 19.7573 143.273 20.409 142.507 20.4023C141.715 20.3956 141.05 19.6901 141.08 18.8873C141.109 18.0979 141.754 17.4865 142.547 17.5033C143.346 17.5201 143.934 18.1415 143.925 18.9612Z" fill="#011638"/>
<path d="M143.918 30.7354C143.911 31.5349 143.28 32.1765 142.504 32.1765C141.738 32.1765 141.086 31.5215 141.073 30.7388C141.063 29.9292 141.744 29.2405 142.533 29.2607C143.316 29.2808 143.925 29.9292 143.918 30.732V30.7354Z" fill="#011638"/>
<path d="M137.824 24.8199C137.83 25.4514 137.334 25.9418 136.706 25.9318C136.1 25.9217 135.653 25.4581 135.65 24.8366C135.647 24.2253 136.097 23.7382 136.689 23.7147C137.298 23.6911 137.82 24.1984 137.827 24.8199H137.824Z" fill="#011638"/>
</g>
<defs>
<clipPath id="clip0_3092_32">
<rect width="159" height="38" fill="white" transform="translate(4 5)"/>
</clipPath>
</defs>
</svg>
