<svg width="133" height="48" viewBox="0 0 133 48" fill="none" xmlns="http://www.w3.org/2000/svg">
<g clip-path="url(#clip0_2156_754)">
<path d="M128.358 19.5478C127.69 18.3423 126.251 17.428 124.687 17.428C123.313 17.428 122.103 17.989 122.103 19.4437C122.103 20.6685 123.626 21.4994 125.21 22.5179C126.94 23.5979 128.734 24.9263 128.734 27.2331C128.734 30.2452 125.794 32.0933 122.396 32.0933C120.998 32.0933 119.54 31.8234 117.893 31.2003L118.163 27.191C118.956 28.7913 120.437 30.0576 122.624 30.0576C124.313 30.0576 125.564 29.2481 125.564 27.8349C125.564 26.63 124.541 25.8827 123.292 25.1353C120.664 23.5571 118.997 22.2888 118.997 20.0047C118.997 16.5765 121.874 15.4344 124.855 15.4344C126.585 15.4344 127.67 15.7463 128.774 15.7463L128.358 19.5478ZM113.785 23.1404C113.409 23.7642 112.931 24.6144 112.638 25.2388C112.388 26.4223 112.263 28.0018 112.263 29.7457C112.263 30.473 112.388 31.4488 112.722 31.7814H108.365C109.135 31.0547 109.449 26.5899 109.408 25.1767C108.824 23.1624 108.03 21.2302 106.822 18.8826C106.052 17.4086 105.154 16.0154 104.591 15.7463C105.571 15.6641 106.822 15.6014 107.427 15.6014C108.51 15.6014 108.803 15.7463 109.471 17.2009C110.511 19.5485 111.283 21.3124 111.742 22.6221C112.848 20.8976 113.618 19.7141 114.619 18.0939C114.869 17.6992 115.078 17.2009 115.078 16.7227C115.078 16.348 115.015 15.9333 114.849 15.7463H119.164C118.33 15.9333 114.577 21.812 113.785 23.1404ZM98.6285 19.5071L96.0442 25.0932H100.255L98.6285 19.5071ZM103.695 31.9263C102.318 31.9263 102.215 31.8856 101.109 28.1054L100.714 26.7135C100.048 27.0247 98.8577 27.1703 96.9613 27.1703H95.0434L94.7095 27.8763C94.2302 28.9369 93.584 30.1811 93.584 31.0554C93.584 31.2631 93.6048 31.4908 93.6886 31.782H82.3052C82.9521 31.0554 83.1606 28.7085 83.4729 24.4494L83.5353 23.4322C83.7022 21.0018 83.8289 19.1324 83.8068 17.8247C83.786 16.7448 83.6814 16.0588 83.3898 15.7476H87.7894C87.1633 16.2258 86.9333 18.8005 86.6424 23.0595L86.5586 24.0767C86.454 25.6556 86.2462 27.2752 86.2462 28.8541C86.2462 29.58 86.5378 29.7463 87.2893 29.7463C89.9567 29.7463 90.625 29.6842 91.833 28.8741C92.5832 27.5029 93.4392 25.7785 94.2718 23.9926L95.3994 21.6042C96.4619 19.3608 97.5036 17.0754 97.5036 16.6399C97.5036 16.3273 97.4205 16.0375 97.2965 15.7463H100.798C100.798 15.7463 102.216 20.9811 102.529 22.1018L103.216 24.6364C104.404 28.8948 105.155 30.9712 106.156 31.7814C105.321 31.8856 104.133 31.9263 103.695 31.9263ZM75.322 32.0933C71.1731 32.0933 68.7753 28.6871 68.7753 24.8655C68.7753 19.5485 71.6726 15.4344 77.1977 15.4344C78.9279 15.4344 79.7417 15.7463 81.1374 15.7463L80.7211 19.8384C79.9287 18.4051 78.6356 17.4287 76.9061 17.4287C73.4665 17.4287 72.0694 21.1267 72.0694 24.3045C72.0694 27.7521 74.0088 29.6415 76.593 29.6415C77.9901 29.6415 79.2195 29.2675 81.2842 27.8349C80.4503 30.4944 78.5109 32.0933 75.322 32.0933ZM60.9374 17.6992C60.5412 17.6992 60.0606 17.6991 59.6865 17.7406C59.5611 18.4258 59.4566 19.61 59.3104 21.5201L59.2266 22.6428C59.4364 22.6849 59.7066 22.7062 59.9573 22.7062C61.9577 22.7062 63.3346 21.5 63.3346 19.6734C63.3346 18.4258 62.4591 17.6992 60.9374 17.6992ZM66.7528 32.4673C65.5649 32.4673 65.2726 32.2796 64.8771 31.7393L60.3736 25.508C60.019 25.0304 59.7482 24.6357 59.1857 24.6357H59.0812L58.9987 25.8406C58.8935 27.4816 58.8311 28.7913 58.8311 29.7671C58.8519 30.847 58.9772 31.5109 59.2695 31.7814H54.9122C55.5369 31.2203 55.7655 29.351 56.1208 24.4487L56.1838 23.4316C56.3508 21.0225 56.4761 19.1525 56.4547 17.8447C56.4332 16.702 56.3092 15.9954 55.9955 15.7463C58.4765 15.7463 61.9369 15.7463 61.9369 15.7463C63.8756 15.7463 66.5443 16.0795 66.5443 19.2152C66.5443 21.7899 64.8134 23.2031 62.6669 23.867C62.8754 24.0547 63.2501 24.5322 63.4801 24.8234L66.7528 29.1439C68.796 31.8234 68.9623 31.9477 69.693 32.3217C68.7753 32.4252 67.5458 32.4673 66.7528 32.4673ZM46.4488 19.5071L43.8411 25.0932H48.0731L46.4488 19.5071ZM51.5134 31.9263C50.1385 31.9263 50.0339 31.8856 48.9292 28.1054L48.533 26.7135C47.8647 27.0247 46.6768 27.1703 44.7796 27.1703H42.8617L42.5286 27.8763C42.1947 28.625 41.3816 30.1624 41.4024 31.0554C41.4024 31.2631 41.4232 31.4708 41.507 31.782H37.6503C38.7551 30.6814 40.1522 28.1267 42.0908 23.9932L43.217 21.6049C44.238 19.445 45.3226 16.9939 45.3226 16.6406C45.3226 16.328 45.2402 16.0381 45.1142 15.7469H48.6175C48.6175 15.7469 49.5332 19.2159 50.347 22.1025L51.0348 24.6371C52.2233 28.8955 52.9735 30.9719 53.9743 31.782C53.0781 31.8856 51.9519 31.9263 51.5134 31.9263ZM31.666 17.6784C31.353 17.6784 30.9367 17.6784 30.5405 17.7205C30.3736 18.8419 30.269 19.9219 30.1866 21.1053C30.1866 21.1053 30.1235 22.1225 30.1235 22.0811H30.5405C32.5838 22.0811 34.4608 21.3752 34.4608 19.5071C34.4608 18.4258 33.5638 17.6784 31.666 17.6784ZM31.1458 24.034H29.9995L29.8326 26.4016C29.7495 27.4408 29.7072 28.3124 29.6865 29.351C29.6865 29.4972 30.145 29.8084 31.2283 29.8084C33.48 29.8084 34.9609 28.6871 34.9609 26.8377C34.9609 24.7813 33.2716 24.034 31.1458 24.034ZM31.3959 31.7814H25.7668C26.4761 31.1576 26.6638 28.7278 26.9762 24.4487L27.0385 23.4522C27.2061 21.0218 27.3308 19.1525 27.31 17.8447C27.2892 16.7227 27.1639 15.9954 26.8508 15.7463H33.1469C34.6478 15.7463 37.6503 15.8298 37.6503 18.9447C37.6503 21.0218 35.711 22.3095 33.9392 22.7677C36.441 23.0168 38.3174 24.221 38.3174 26.7963C38.3167 29.5794 35.6902 31.7814 31.3959 31.7814Z" fill="#011638"/>
<mask id="mask0_2156_754" style="mask-type:luminance" maskUnits="userSpaceOnUse" x="-138" y="-55" width="206" height="132">
<path d="M-136.798 62.1369V-14.3485C-136.797 -18.7525 -133.514 -21.9316 -129.181 -21.9316C-133.514 -21.9316 -137.026 -25.5034 -137.026 -29.9054L-137.046 -51.4131C-137.046 -53.3419 -135.508 -54.9041 -133.615 -54.9041H52.9443C60.8103 -54.9041 67.1868 -48.4236 67.1868 -40.4305V69.2939C67.1868 72.9071 64.3036 76.6085 60.7459 76.6085H-122.555C-130.424 76.6085 -136.798 68.0704 -136.798 62.1369Z" fill="white"/>
</mask>
<g mask="url(#mask0_2156_754)">
<path d="M13.0973 13.5013C12.5395 13.5013 12.4242 13.5982 12.2432 13.7992C12.1722 13.7946 12.0978 13.7932 12.02 13.7932C11.591 13.7932 11.0399 13.856 10.57 14.1692C10.1162 14.4678 9.9003 14.996 10.1423 15.3827C10.1423 15.3827 10.3045 15.1457 10.8381 15.1457C10.9132 15.1457 10.9963 15.1537 11.0848 15.161C11.8222 15.2478 12.3679 15.6345 12.3015 16.6557C12.2425 17.6762 11.8584 18.8143 10.2871 18.8277C10.2871 18.8277 10.0847 18.8277 9.8688 18.8076C9.13743 18.7282 8.9075 18.2707 8.9075 18.2707C8.9075 18.2707 9.53965 18.0997 9.54501 17.3002C9.53965 16.7566 9.06436 16.259 8.37858 16.058C8.15401 15.9925 7.90732 15.9605 7.65057 15.9605C6.84211 15.9605 5.93444 16.2977 5.3224 17.0939C3.93475 18.9192 3.82213 21.58 4.16067 24.0545C4.50121 26.5343 6.07991 28.8312 6.12617 28.894C6.15969 28.938 6.18985 28.9621 6.22404 28.9621C6.24147 28.9621 6.25957 28.954 6.27834 28.9387C6.9601 28.2795 7.61035 27.3785 7.88855 26.7761C8.18619 27.0125 8.03066 27.5154 7.8671 28.0524C7.71157 28.6014 7.33349 29.33 7.19673 29.5651C7.06467 29.7949 6.8877 30.062 7.12568 30.2016C7.14981 30.2163 7.18065 30.2243 7.21752 30.2243C7.5232 30.2243 8.2425 29.6934 9.04492 28.6275C9.94321 27.4279 10.3991 26.3633 10.3991 26.3633C10.4647 26.378 10.5747 26.4889 10.5566 26.7908C10.5445 27.0974 10.2281 28.2381 9.61205 29.3C8.98928 30.3613 8.41411 31.0251 8.29814 31.1761C8.22641 31.2636 8.28741 31.3183 8.33367 31.3537C8.37925 31.3845 9.48066 32.409 11.0808 33.2745C12.9766 34.281 13.8172 34.462 13.8172 34.462C13.8172 34.462 14.6559 34.2857 16.5516 33.2799C18.1511 32.413 19.2572 31.3838 19.2981 31.3491C19.3444 31.3177 19.4034 31.2682 19.3336 31.1721C19.2244 31.0278 18.6472 30.3606 18.0258 29.2994C17.4117 28.2448 17.0832 27.0967 17.0785 26.7941C17.0658 26.4889 17.169 26.388 17.2321 26.3627C17.2321 26.3627 17.6926 27.434 18.5909 28.6268C19.3973 29.6941 20.1099 30.2237 20.4169 30.2237C20.4558 30.2237 20.4867 30.2157 20.5121 30.201C20.7427 30.0614 20.5711 29.7902 20.4357 29.5631C20.3097 29.3294 19.9262 28.6054 19.7633 28.0517C19.6071 27.5088 19.4449 27.0065 19.7479 26.7754C20.0268 27.3779 20.6723 28.2835 21.3561 28.9333C21.3742 28.952 21.395 28.9614 21.4151 28.9614C21.4453 28.9614 21.4775 28.938 21.5056 28.8973C21.5559 28.8305 23.1373 26.5377 23.4751 24.0538C23.8143 21.574 23.7024 18.9192 22.3134 17.0932C21.7054 16.2951 20.791 15.9558 19.9772 15.9558C19.7231 15.9558 19.4804 15.9885 19.2586 16.052C18.5674 16.259 18.0941 16.7613 18.0982 17.2996C18.0982 18.099 18.7337 18.27 18.7337 18.27C18.7337 18.27 18.5212 18.7161 17.7636 18.807C17.6222 18.8243 17.4848 18.8323 17.3534 18.8323C16.7836 18.8323 16.3036 18.652 15.8612 18.0296C15.4321 17.4305 15.4462 16.1969 15.4214 15.7855C15.402 15.3681 15.3121 14.4317 14.8717 14.0497C14.4326 13.6576 13.8977 13.526 13.2307 13.5C13.1817 13.5013 13.1382 13.5013 13.0973 13.5013Z" fill="#011638"/>
</g>
</g>
<defs>
<clipPath id="clip0_2156_754">
<rect width="125" height="21" fill="white" transform="translate(4 13.5)"/>
</clipPath>
</defs>
</svg>
