<svg fill="none" height="48" viewBox="0 0 68 48" width="68" xmlns="http://www.w3.org/2000/svg"><g fill="#011638"><path d="m15.2077 15.2685h3.6121c.9911 0 2.2464.2422 2.2464 1.9683 0 1.7262-1.7944 2.4296-3.1262 2.4296h-2.7323zm0 6.7432h2.0577c3.3827 0 5.1055.7579 5.1055 2.7867 0 1.7977-1.3821 2.5576-3.5511 2.5576h-3.2927l-3.765 2.7024 7.0325-.001c4.2113 0 7.0462-1.5546 7.0462-5.1509 0-3.1369-2.5087-4.3691-4.7484-4.3691 1.5476 0 3.3759-1.4216 3.3759-3.8323 0-2.4088-2.1496-4.14-4.6022-4.14h-8.7341l.6301 1.4336v14.8008l3.4456-2.4733z"/><path d="m31.5118 15.2685h2.3471c.9678 0 5.9069.2512 5.9069 6.0437 0 6.6092-5.9069 6.0418-5.9069 6.0418l-2.0268.002-3.7669 2.7024 6.7615.0009c4.2122 0 8.529-2.6557 8.529-8.7471 0-5.4018-3.7699-8.7471-8.529-8.7471h-7.3907l.6292 1.4336v14.8008l3.4466-2.4733z"/><path d="m48.5387 21.3116c0-4.9464 3.3247-6.3363 5.4782-6.3363s5.4792 1.3899 5.4792 6.3363c0 4.9465-3.3257 6.3364-5.4792 6.3364s-5.4782-1.3899-5.4782-6.3364zm-3.5908 0c0 6.9793 5.5034 8.9406 9.069 8.9406 3.5657 0 9.069-1.9613 9.069-8.9406 0-6.9792-5.5033-8.9395-9.069-8.9395-3.5656 0-9.069 1.9603-9.069 8.9395z"/><path d="m4.00029 12.5655v21.8068l3.36627-2.4167v-19.3901z"/><path d="m7.99539 32.762-3.99539 2.866h58.8972v-2.866z"/></g></svg>