<svg fill="none" height="48" viewBox="0 0 66 48" width="66" xmlns="http://www.w3.org/2000/svg" xmlns:xlink="http://www.w3.org/1999/xlink"><clipPath id="a"><path d="m4 .197266h58v47.6064h-58z"/></clipPath><g clip-path="url(#a)"><path d="m24.3289 23.4674c.0003-.266.0794-.526.2273-.747.148-.2211.3581-.3934.6039-.4951s.5162-.1284.7771-.0765.5006.1799.6888.3679.3165.4275.3686.6883c.0522.2609.0259.5313-.0756.7772-.1014.2459-.2735.4563-.4944.6045-.2209.1481-.4808.2275-.7468.2281-.3575 0-.7004-.1419-.9533-.3945-.2529-.2527-.3952-.5954-.3956-.9529zm2.4783 0c.0055-.1496-.02-.2987-.0747-.438s-.1376-.2659-.2435-.3717c-.1058-.1059-.2323-.1887-.3717-.2435-.1393-.0547-.2884-.0801-.438-.0747-.6587 0-1.1339.4722-1.1339 1.1279 0 .6617.4737 1.1339 1.1339 1.1339.6542 0 1.1279-.4722 1.1279-1.1339zm-1.4362.7625h-.197v-1.54h.6617c.4015 0 .5369.1504.5369.4256 0 .2963-.206.4075-.4752.4301l.4571.6843h-.221l-.4331-.6843h-.3294zm.2722-.8633c.2151 0 .5143.0361.5143-.2526 0-.215-.1789-.2436-.3654-.2436h-.4211v.4978zm22.2313.1008c.0003-.2661.0794-.5261.2274-.7472s.3582-.3934.6041-.4951c.2459-.1016.5164-.1282.7773-.0762.261.052.5007.1801.6888.3683.1882.1881.3163.4278.3683.6888.052.2609.0254.5314-.0762.7773-.1017.2459-.274.4561-.4951.6041s-.4811.2271-.7472.2274c-.3572-.0004-.6997-.1424-.9523-.3951-.2527-.2526-.3947-.5951-.3951-.9523zm2.4783 0c.0055-.1497-.02-.299-.0748-.4384-.0549-.1394-.1379-.266-.2439-.3719-.106-.1058-.2327-.1887-.3722-.2433-.1395-.0547-.2888-.08-.4385-.0743-.1499-.0059-.2994.0193-.4392.0738-.1397.0545-.2667.1373-.373.2432s-.1896.2325-.2447.372c-.0551.1396-.0808.289-.0755.4389 0 .6617.4737 1.1339 1.1324 1.1339.1501.0053.2997-.0205.4394-.0756.1397-.0552.2666-.1386.3726-.245.106-.1065.1889-.2336.2435-.3736.0546-.1399.0798-.2896.0739-.4397zm-1.4362.7625h-.197v-1.54h.6617c.4015 0 .5369.1504.5369.4256 0 .2963-.2061.4075-.4752.4301l.4571.6843h-.221l-.4331-.6843h-.3309zm.2722-.8633c.2151 0 .5143.0361.5143-.2526 0-.215-.1789-.2436-.3654-.2436h-.4226v.4978zm-27.7638 1.34v-6.7192h6.7191v-10.74339h-6.7191v-6.717643h-10.7059v6.717643h-6.7191v10.74339h6.7191v6.7192z" fill="#011638"/><path d="m9.87819 10.297 4.45441.4286c.8346.1158.9338.9263.7098 1.4136l-3.0498 5.7296.003-.009c-.7926-.6206-1.4334-1.4136-1.8737-2.3188-.44039-.9053-.66875-1.8989-.6678-2.9055 0-.8226.15039-1.6107.42409-2.3385zm6.23191-3.45432c-.7865 0-1.0301.88876-.6843 1.34743.3143.40604.3745.52635.358.90682-.0136.32182-.3113.71733-.9836.73086h-4.7235c.5345-1.14435 1.3844-2.11246 2.4499-2.79066 1.0655-.67819 2.3024-1.03832 3.5654-1.03811" fill="#fefdff"/><path d="m10.5404 11.2761 3.3701.3113c.2436.018.2616.1233.206.2617l-2.3595 4.51c-.8922-1.0358-1.3817-2.358-1.3791-3.725 0-.4677.0557-.9219.1625-1.358zm3.9641-4.13255c-.3384.56244-.0647 1.2918.2541 1.63768.0587.06166.0301.12332-.024.13986h-2.9852c.7246-.84943 1.6825-1.46749 2.7551-1.77754z" fill="#011638"/><path d="m22.3051 10.2975-4.4543.4286c-.8347.1158-.9339.9264-.7098 1.4136l3.0497 5.7281-.0045-.009c.7929-.6204 1.4338-1.4133 1.8742-2.3186s.6686-1.899.6673-2.9057c0-.8226-.1504-1.6121-.4241-2.34zm-6.2319-3.4543c.7865 0 1.0302.88877.6843 1.34744-.3143.40604-.3745.52634-.3579.90682.0135.32182.3113.71582.9835.72936h4.725c-.5346-1.14425-1.3846-2.11225-2.45-2.79043-1.0655-.67817-2.3023-1.03838-3.5653-1.03834" fill="#fefdff"/><path d="m21.6441 11.2761-3.3716.3113c-.2437.018-.2632.1218-.2061.2617l2.3611 4.51c.8586-1.0001 1.3775-2.3009 1.3775-3.725 0-.4677-.0557-.9219-.1609-1.358zm-3.9642-4.13255c.3369.56244.0632 1.2918-.2541 1.63618-.0602.06316-.0301.12482.0226.14136h2.9866c-.725-.84889-1.6828-1.46684-2.7551-1.77754z" fill="#011638"/><path d="m16.0927 19.2737c1.349 0 2.6017-.4015 3.6498-1.0933v.0046l-3.2362-4.8364c-.2271-.3113-.5895-.3368-.8286 0l-3.2363 4.8364v-.0046c1.0482.6918 2.3024 1.0933 3.6513 1.0933z" fill="#fefdff"/><path d="m41.522 24.9679c4.6424-2.564 7.4546-6.6469 8.9043-11.1283 1.5038-4.64841 1.2286-10.19907-.5113-13.627823-2.6513 1.336913-5.292 2.055743-8.393 2.064773-3.0994.00902-5.7431-.7414-8.3929-2.078308-1.7414 3.427248-2.0136 8.992948-.5098 13.641358 1.4497 4.4814 4.2634 8.5643 8.9027 11.1283z" fill="#011638"/><path d="m41.5183 22.8917c3.8197-2.3655 5.8559-5.7552 7.1582-9.5824 1.1565-3.39871 1.4392-7.37335.1669-10.47727-1.9083.65567-3.0272.85869-4.0648 1.02111-.9685.15038-1.8332.24211-3.2498.26166h-.0105c-1.0884-.00408-2.1748-.09156-3.2498-.26166-1.0377-.16091-2.158-.36544-4.0664-1.02111-1.2723 3.10242-.9895 7.07856.1684 10.47727 1.3038 3.8272 3.3385 7.2169 7.1568 9.5824z" fill="#fefdff"/><path d="m41.5188 21.9516c2.5836-1.6257 5.5131-5.3116 6.6816-10.163.6241-2.57452.7955-5.4664-.0136-7.76126-1.1579.30829-2.2362.56394-3.352.71433-1.1159.15038-2.2212.25866-3.3085.26618h-.009c-1.1068-.01956-2.2113-.10846-3.3069-.26618-1.1174-.15039-2.1971-.40604-3.3536-.71433-.8091 2.29486-.6361 5.18674-.0135 7.76126 1.17 4.8514 4.0994 8.5388 6.6815 10.163z" fill="#011638"/><g fill="#fefdff"><path d="m42.103 13.1377.0496-1.8257s-.2601-.1098-.6406-.1338c-.5008-.0316-.7083-.0542-.7083-.0542l.0075.1564s-.2692.0662-.3068.1309c-.015.03-.0676.0706-.0075.1804.2662.4858.4241.7143.5489 1.3745.382.0497.6497.0933 1.0572.1715z"/><path d="m39.218 12.8445c-.0527.8361.5669 1.3414 1.4421 1.4843.9384.1353 1.4964.2 1.749.2571.0359.0153.0677.039.0925.0691.0249.0301.0422.0657.0504.1039.015.0872 0 .1323-.0497.1924-.0541.0677-.1278.0843-.1278.0843l-.0271 1.003s.3384-.015.6662-.212c.3098-.1865.5023-.4256.5715-.7219.0797-.3458.0241-.6195-.2196-.9549-.1624-.2226-.4451-.385-.7323-.4827-.4316-.1504-1.2467-.2497-1.8588-.3354-.0932-.012-.2436-.0707-.2586-.2075-.0166-.1549.1714-.188.1714-.188s-.0436-.1444-.1218-.3729c-.0906-.2166-.1941-.4275-.3098-.6317-.4135.1805-1.0015.3534-1.0376.9129z"/><path d="m42.0518 14.8463-.0316 1.6573-.767-.391-.0872-1.3655c.4.0466.5474.0571.8858.0992z"/><path d="m40.0192 15.759c-.2466.5835-.0271 1.1158.5835 1.382.2632.1128.6271.2196.9053.3263.2707.1038.773.4407.8106.5835.0225.0903-.0572.1579-.0572.1579l-.0285.7083s.2601-.0631.4782-.2406c.1126-.0861.2031-.198.2637-.3261.0607-.1282.0899-.269.0852-.4108-.003-.3849-.1805-.618-.7294-.9399-.4241-.2496-1.003-.4812-1.4046-.6586-.0331-.0151-.1654-.0963-.1203-.2422.0226-.0736.1023-.1022.1023-.1022l-.0632-.8286s-.215.0646-.3594.1504c-.1308.0797-.3744.227-.4662.4406z"/><path d="m41.9944 18.1851c.003-.0586-.0166-.0646-.0436-.1052-.0904-.0917-.1919-.1715-.3023-.2376-.1248-.0722-.394-.1564-.394-.1564s.0421 1.788.0752 2.74c.0075.215.0947.2887.3038.2842.2451-.006.2962-.1068.2977-.2391.006-.3008.0496-1.5926.0632-2.2859zm.2722-11.86674c.0917.06617.0932.08572.1233.22107.0616.29625-.0511.72635.006.92937.0301.06617.0962.06466.1459.03609.409-.21956.6857-.59853 1.0963-.77598.1955-.08271.7489.1955.6241.59853-.0587.18948-.1038.18798-.2301.30227-.2587.2361-.6016.47972-.9399.80305-.2151.20602-.4211.32633-.576.57296-.0331.05715-.1143.21204-.1143.21204-.5729-.1188-1.1594-.12632-1.6031-.21956l-.0225-.48724s.5729-.00602.6316-.3519c.003-.01804-.0105-.12181-.0767-.16993-.0906-.05679-.1875-.10272-.2888-.13685.4332.06767.8166.22858 1.2618.42408.0285-.04812-.0451-.21505-.0782-.25114-.0602-.07068-.1324-.12181-.2873-.1579-.2707-.06918-.9263-.15039-.9263-.15039l.5534-.02255c.1383-.02256.2812-.0767.3128-.12482.0526-.11881-.1564-.30679-.2903-.48725-.0661-.09023-.1534-.26467-.2722-.37295-.1443-.17294-.5834-.33686-.5834-.33686s-.0361-.29475.036-.43761c.0527-.10678.2873-.1173.3625-.08121.3278.18647.6978.38799 1.1354.46468z"/><path d="m44.1537 10.9061c-.0842-.4361-.5293-.8467-.9203-1.04818-1.0166-.52334-2.128-.33235-3.1686-.66921-.2978-.09775-.6557-.23761-.7369-.57747-.0526-.21656-.0496-.4301.1068-.52334.2376-.13986.415.08422.797.17144.2406.05714.5008.05113.6888-.00602.0842-.02556.2015-.05113.215-.11429 0-.06466-.1383-.10376-.1865-.12933-.1188-.06015-.218-.05865-.3458-.10677-.2091-.0797-.4316-.22708-.6437-.34438.1985-.04211.5324-.05113.7324-.02707.1594.01654.6496.01203.797-.02707.0316-.00902.1053-.03609.0737-.09173-.0571-.09625-.1534-.13084-.2195-.21956-.1429-.194-.2662-.39702-.4978-.48574-.6677-.25565-1.4121-.32032-2.0753.02406-.4307.23202-.7564.62004-.9102 1.08449s-.1241.97014.0831 1.41338c.3594.73688 1.0466 1.11289 1.8572 1.31889.3955.1007.7384.1579 1.1685.2045.4933.0526.9294.0752 1.4061.1955.1022.0256.2752.0993.3233.203.0857.1865.0346.4076-.194.5008-.006.4166-.0586 1.2843-.0586 1.2843s2.0527-.2136 1.7083-2.0302zm-3.2422-3.89946c-.0433-.01596-.0895-.02212-.1354-.01804-.0857.06165-.1444.12181-.2391.13684-.188.03159-.1594-.13384-.2902-.22407-.0797-.05564-.1549.01504-.2241-.11429.2737.00752.6857.00902.8888.21956z"/></g><path d="m15.9978 14.4421c.0527-.0677.1249-.0722.188 0l2.2317 3.4152c-.7322.3261-1.5249.4941-2.3264.4933-.8016.0012-1.5943-.1669-2.3265-.4933l2.2332-3.4152c.0617-.0722.1354-.0677.188 0z" fill="#011638"/><path d="m40.7826 18.7759c-.1068.1068-.3384.3294-.2948.7971.0301.2932.0933.3865.194.5819.0737.1399.1925.2001.2376.0061.0271-.1188-.0782-.2256-.0436-.4737.0376-.2512.1669-.3008.1669-.3008l-.0361-.782c-.0822.0465-.1576.1042-.224.1714z" fill="#fefdff"/><path d="m9.60742 31.4846h3.90698c.394.009.8286.0286 1.2331.2075.7505.364.7685 1.1038.7685 1.2618.0032.1937-.0326.3862-.1055.5658s-.1812.3426-.3186.4793c-.4632.4827-1.0752.5534-1.5189.6016.4828.0195 1.2633.0601 1.8648.6707.2361.227.5218.6316.5218 1.2737 0 .4527-.1473.9264-.5218 1.3008-.5639.561-1.2738.582-1.8858.6016h-3.94458v-.2572h.95648v-6.4515h-.95648zm2.52498.2948-.0196 2.6933h.6512c.4346 0 .7805-.1383.9173-.3158.1669-.197.2557-.5233.2557-1.0346 0-1.1159-.3444-1.3219-1.1038-1.3429zm-.0196 2.9776.0196 3.4031h.7504c.3444-.018.7098-.0481 1.0256-.3534.406-.4135.406-1.1248.406-1.3715 0-.7594-.1669-1.1624-.4737-1.4-.2271-.1775-.6211-.2858-1.2226-.2782zm5.462-3.2724c.4631-.0105.6015-.0105 1.0346-.0391v6.7462h.6797v.2572h-2.8798v-.2572h.7399v-6.4514h-.7399v-.2557zm2.6993 2.1881c.5144-.009.6708-.009 1.155-.0376l-.0196 3.1265c0 .3744.0196.6602.0993.8572.1278.3067.394.4451.7203.4451.2858 0 .5324-.1083.7204-.2857.3834-.385.3759-.8978.3759-1.3324l-.021-2.516h-.7324v-.2571s1.4211-.009 2.161-.0376v4.5461h.7098v.2677h-.7504c-.6301 0-.8572.009-1.3309.0391l-.0316-.761c-.206.2572-.6887.8286-1.8046.8286-.7293 0-1.194-.2752-1.382-.6511-.1474-.2767-.1368-.6316-.1368-.9279l-.0211-3.0468h-.7203v-.2571zm10.16 3.3941c-.2557.4828-.788 1.4888-2.2799 1.4888-1.5294 0-2.4662-1.1729-2.4662-2.5429 0-1.3129.8887-2.4754 2.4753-2.4754.9865 0 1.5294.4241 1.7655.6692.5429.5625.5624 1.155.5729 1.5791h-3.2949c.0106.8376.0301 1.5971.4437 2.0332.2255.2361.5519.3353.8767.3353 1.0647 0 1.4708-.8978 1.6091-1.2136zm-1.4407-1.5775c.009-.7699.018-1.6783-.8692-1.6783-.8392 0-.8783.8392-.9068 1.6783zm8.5313 2.4648c-.7294.2662-1.6377.5925-2.7731.5925-2.0317 0-3.5401-1.4602-3.5401-3.5911 0-2.2979 1.7355-3.6303 3.6995-3.6303.6015 0 1.5294.1383 2.5746.5925v1.964h-.3068c-.0481-.3759-.1263-.9865-.7279-1.5895-.1893-.1973-.4162-.3548-.6672-.4632-.251-.1085-.5211-.1658-.7945-.1684-.5218 0-1.0452.218-1.3911.5624-.4932.4932-.7098 1.2828-.7098 2.7234 0 1.3911.167 2.2498.6798 2.7716.2857.2963.7399.5339 1.2827.5339.5219 0 1.143-.2091 1.6467-.7399.5926-.6121.6617-1.1354.7008-1.5099h.3264zm2.7219.2376h.7294v.2572h-2.8904v-.2572h.7203v-4.2619h-.7203v-.2571s1.558-.009 2.1204-.0376l.0196.967c.0599-.2357.1831-.4505.3564-.6211.1169-.1233.2575-.2218.4132-.2898.1558-.0679.3236-.1039.4936-.1057.6316 0 .8978.5022.8978.9474 0 .6-.394.7008-.6106.7008-.0977 0-.6121-.0497-.6121-.6512 0-.0496.0316-.2962.0316-.3444 0-.209-.1489-.209-.1774-.209-.1294 0-.3068.1579-.4346.3549-.3264.5233-.3459 1.2918-.3564 1.8362zm7.444-2.1129c0 1.5595-1.2422 2.4753-2.5731 2.4753-1.4497 0-2.5069-1.0436-2.5069-2.5144 0-1.5489 1.1249-2.4753 2.4859-2.4963 1.5986-.0286 2.5941 1.1053 2.5941 2.5354zm-3.5806-.2346c0 1.5475.0992 2.4362 1.0466 2.4362.9565 0 1.0257-.8993 1.0257-2.2016 0-1.1925-.0587-2.2873-1.0347-2.2783-.9188.0015-1.0376.9384-1.0376 2.0437zm4.6137.7895c.0391.2843.0692.5234.2271.8181.1564.3158.5625.8091 1.2617.8091.5835 0 .9685-.3263.9685-.7203 0-.4452-.4346-.6226-1.0662-.8482-.8783-.3263-1.6166-.5925-1.6166-1.6377 0-1.2437 1.0857-1.5294 1.7655-1.5294.5413 0 .9865.1564 1.4512.3158l.0195 1.2828h-.2962c-.0305-.1823-.0804-.3608-.1489-.5324-.1263-.2661-.5008-.7384-1.1339-.7384-.5324 0-.77.3534-.77.6016 0 .3038.2572.4331.3655.4812.1564.0707.9368.3549 1.1143.4241.6015.2466 1.2241.582 1.2241 1.4888 0 1.0346-.809 1.7189-1.9926 1.7189-.6526 0-1.1444-.179-1.6572-.3655l-.021-1.5685zm4.3085 0c.0376.2843.0677.5234.2256.8181.1579.3158.5624.8091 1.2632.8091.582 0 .967-.3263.967-.7203 0-.4452-.4331-.6226-1.0662-.8482-.8768-.3263-1.6167-.5925-1.6167-1.6377 0-1.2437 1.0858-1.5294 1.7671-1.5294.5413 0 .985.1564 1.4482.3158l.0195 1.2828h-.2962c-.03-.1822-.0794-.3607-.1474-.5324-.1278-.2661-.5023-.7384-1.1324-.7384-.5324 0-.7715.3534-.7715.6016 0 .3038.2572.4331.3654.4812.1595.0707.9384.3549 1.1159.4241.6015.2466 1.2226.582 1.2226 1.4888 0 1.0346-.8091 1.7189-1.9926 1.7189-.6526 0-1.1444-.179-1.6587-.3655l-.0195-1.5685zm-43.41124 4.095h3.90694c.394.0105.8286.0301 1.2332.206.7504.367.7699 1.1068.7699 1.2632.0033.1938-.0326.3863-.1055.5658-.0728.1796-.1812.3427-.3185.4794-.4647.4842-1.0768.5534-1.5204.6015.4842.0211 1.2617.0587 1.8647.6708.2361.227.5219.6316.5219 1.2737 0 .4542-.1489.9264-.5219 1.3023-.5639.561-1.2722.5805-1.8843.6001h-3.94604v-.2572h.95644v-6.4515h-.95644zm2.52494.2947-.0211 2.6934h.6512c.4346 0 .779-.1383.9173-.3158.167-.1985.2557-.5218.2557-1.0346 0-1.1144-.3444-1.3234-1.1038-1.343zm-.0196 2.9806.0211 3.4032h.7504c.3444-.0195.7098-.0481 1.0256-.3549.4061-.4135.4061-1.1248.4061-1.37 0-.7609-.167-1.1639-.4737-1.4015-.2256-.1775-.6211-.2858-1.2227-.2768zm5.462-3.2753c.4632-.009.6015-.009 1.0361-.0391v6.7462h.6798v.2572h-2.8814v-.2572h.7414v-6.4515h-.7414v-.2556zm2.7009 2.1896c.5128-.0106.6692-.0106 1.1534-.0376l-.0195 3.125c0 .3744.0195.6616.0992.8586.1279.3053.394.4437.7204.4437.268.0015.5262-.1009.7203-.2858.385-.3849.3745-.8977.3745-1.3309l-.0196-2.5174h-.7309v-.2556s1.4212-.0106 2.1611-.0376v4.5461h.7098v.2662h-.7504c-.6317 0-.8587.0105-1.3324.0391l-.0301-.761c-.2076.2587-.6903.8301-1.8046.8301-.7294 0-1.1941-.2767-1.3805-.6511-.1504-.2767-.1384-.6331-.1384-.9279l-.0196-3.0483h-.7203v-.2556zm10.0591 3.3941c-.2556.4828-.7895 1.4888-2.2783 1.4888-1.5294 0-2.4663-1.1745-2.4663-2.5445 0-1.3113.8873-2.4753 2.4754-2.4753.9865 0 1.5309.4226 1.767.6707.5413.561.5624 1.1535.5714 1.5776h-3.2934c.009.8391.0301 1.597.4437 2.0332.1162.1122.2539.1999.4048.2578.1509.0578.3119.0847.4734.079 1.0647 0 1.4707-.8993 1.6076-1.2136zm-1.4406-1.579c.0105-.77.021-1.6768-.8677-1.6768-.8377 0-.8768.8392-.9084 1.6768zm2.5054.582c.0496.2857.0977.5429.2661.8888.5926 1.2226 1.6678 1.2527 1.8859 1.2527.7789 0 1.4391-.4647 1.4391-1.1836 0-.7188-.5429-.9579-2.0332-1.5685-.2361-.0992-.4631-.1879-.6797-.3052-.2572-.1384-1.1038-.6332-1.1038-1.7671 0-1.2226.9745-2.0407 2.3475-2.0407.8587 0 1.5294.2843 1.8843.4331l.0992 1.6588h-.3158c-.1383-.5128-.218-.8001-.5609-1.1444-.3444-.3549-.8-.6031-1.2918-.6031-.7504 0-1.1459.5038-1.1459 1.0181 0 .6301.5729.8978.8286 1.0166.3354.1564.6707.2752 1.0061.4136.8587.3443 1.9339.8572 1.9339 2.2091 0 1.2738-.9955 2.2106-2.6633 2.2106-.8482 0-1.4993-.2361-2.14-.4631l-.0586-2.0242h.3023m5.9943-4.5882c.5037 0 .621-.009 1.0647-.0391l-.0196 2.949c.1865-.2947.3745-.573.9369-.7399.2361-.0782.4722-.1067.7204-.1067.7308 0 1.0857.2857 1.2436.4331.3655.3654.394.7985.4151 1.1745l.0195 3.0377h.6813v.2572h-2.8904v-.2572h.7594l.0196-3.0573c0-.385 0-1.1549-.77-1.1549-.2782.0035-.5436.1171-.7384.3158-.3368.3353-.3654.7805-.3955 1.3504l.0196 2.5445h.7399v.2572h-2.8814v-.2572h.7204v-6.4515h-.7204v-.2556zm7.4169 2.152v4.5551h.6812v.2572h-2.8813v-.2572h.7399v-4.2619h-.7399v-.2556s1.5188-.0106 2.2001-.0376zm-1.549-1.4211c0-.4241.3549-.7805.7895-.7805.4241 0 .77.3443.77.7805 0 .4361-.3444.7804-.77.7804-.2058-.0062-.4017-.0902-.5481-.235-.1465-.1448-.2327-.3397-.2414-.5454zm7.2967 4.8528c-.2557.4828-.7881 1.4888-2.2784 1.4888-1.5309 0-2.4663-1.1745-2.4663-2.5445 0-1.3113.8873-2.4753 2.4754-2.4753.9865 0 1.5294.4226 1.767.6707.5414.561.5609 1.1535.5714 1.5776h-3.2934c.0091.8391.0301 1.597.4437 2.0332.1161.1124.2538.2001.4047.258s.312.0847.4735.0788c1.0647 0 1.4708-.8993 1.6061-1.2136zm-1.4392-1.579c.009-.77.018-1.6768-.8677-1.6768-.8392 0-.8783.8392-.9083 1.6768zm2.9686-4.0047c.4631-.009.6015-.009 1.0346-.0391v6.7462h.6827v.2572h-2.8813v-.2572h.7399v-6.4515h-.7399v-.2556zm5.7371 0c.573 0 .7519-.009 1.194-.0391v6.7372h.7008v.2662s-1.4797.0105-2.1219.0391v-.6527c-.2256.2857-.5805.7203-1.4978.7203-1.4798 0-2.0723-1.3429-2.0723-2.4272 0-1.5474.9264-2.543 2.2001-2.543.6106 0 .9369.1971 1.164.4226.0986.0868.1701.2001.206.3264l-.0195-2.5957h-.7294v-.2556zm-1.9129 2.752c-.2857.2963-.3368.8783-.3368 1.8046 0 1.1354.03 2.0813.9384 2.0813.1414.0021.2818-.0249.4124-.0792s.2487-.1348.347-.2366c.2662-.2752.3444-.6211.3444-1.8632 0-.8888 0-1.9731-1.0452-1.964-.1218-.0046-.2432.0158-.3568.06-.1135.0443-.2168.1113-.3034.1971zm.2391-10.4502c.0006-.2661.08-.5262.2283-.7473.1482-.221.3586-.3933.6046-.4949.246-.1017.5166-.1282.7776-.0762.2611.0519.5009.18.6892.3681.1883.1882.3167.4278.369.6888.0522.261.026.5317-.0754.7778-.1013.2461-.2733.4567-.4943.6051-.2209.1485-.4808.2282-.747.2291-.3582-.0004-.7016-.1428-.955-.3959s-.3962-.5964-.397-.9546zm2.4799 0c.0059-.1498-.0193-.2992-.0738-.4389-.0546-.1397-.1374-.2666-.2433-.3727-.1059-.1062-.2325-.1894-.3721-.2443-.1395-.0549-.2889-.0804-.4387-.0749-.1503-.0057-.3002.0197-.4403.0744-.1401.0548-.2674.1378-.374.2438-.1067.1061-.1903.233-.2458.3728s-.0817.2895-.0768.4398c0 .6617.4767 1.1354 1.1369 1.1354.6572 0 1.1279-.4737 1.1279-1.1354zm-1.4362.7625h-.197v-1.5399h.6632c.4 0 .5368.1503.5368.4271 0 .2962-.2075.4075-.4767.4285l.4602.6843h-.2226l-.4346-.6843h-.3293zm.2722-.8617c.2165 0 .5173.0331.5173-.2557 0-.2165-.1789-.2436-.3654-.2436h-.4226v.4993zm1.8226 8.9523c.0006-.2665.0802-.5269.2286-.7483.1485-.2213.3592-.3938.6055-.4955.2464-.1017.5174-.1282.7788-.076.2614.0521.5014.1805.6899.369s.3169.4286.3691.6899c.0521.2614.0256.5324-.0761.7788-.1017.2463-.2741.457-.4955.6055-.2214.1484-.4818.228-.7483.2286-.3585-.0004-.7021-.143-.9555-.3964-.2535-.2535-.3961-.5971-.3965-.9556zm2.4799 0c.0054-.1496-.02-.2987-.0747-.438-.0548-.1393-.1377-.2658-.2435-.3717-.1058-.1058-.2324-.1887-.3717-.2434-.1393-.0548-.2884-.0802-.438-.0747-.6587 0-1.1369.4722-1.1369 1.1278 0 .6632.4767 1.1369 1.1369 1.1369.6557 0 1.1279-.4737 1.1279-1.1369zm-1.4362.764h-.197v-1.5399h.6617c.4015 0 .5368.1518.5368.4255 0 .2978-.209.4091-.4767.4301l.4602.6843h-.2211l-.4346-.6843h-.3293zm.2722-.8647c.2165 0 .5158.0361.5158-.2542 0-.2165-.1789-.2436-.3639-.2436h-.4226v.4978z" fill="#011638"/></g></svg>