<svg fill="none" height="48" viewBox="0 0 106 48" width="106" xmlns="http://www.w3.org/2000/svg"><g fill="#011638"><path d="m96.5081 30.3794c0-1.4295 1.1846-2.5412 2.5846-2.5412 1.4543 0 2.5843 1.1647 2.5843 2.5412 0 1.3764-1.184 2.5411-2.5843 2.5411-1.4 0-2.5846-1.1117-2.5846-2.5411z"/><path d="m18.8615 23.5499c0 2.9647-.7538 5.1882-2.3692 6.7765-1.6154 1.5882-3.8769 2.3823-6.78461 2.3823h-5.70769v-17.6294h6.0308c2.8538 0 5.0077.6882 6.5154 2.1706 1.5615 1.4294 2.3153 3.5471 2.3153 6.3zm-4.9538.1588c0-1.6412-.3231-2.8059-.9692-3.6-.5923-.7412-1.6154-1.1647-2.9077-1.1647h-1.29234v9.8471h1.07692c1.45382 0 2.47692-.4236 3.17692-1.2706.5923-.8471.9154-2.1177.9154-3.8118z"/><path d="m39.0004 15.0264h-4.4693v17.6823h4.4693z"/><path d="m53.7538 26.0911c0 2.1176-.5384 3.8117-1.723 5.0294-1.1847 1.2176-2.8 1.8-4.8462 1.8-1.9923 0-3.5538-.5824-4.7384-1.853-1.1847-1.2705-1.777-2.9117-1.777-4.9764 0-2.1177.5385-3.8118 1.7231-4.9765 1.1846-1.2176 2.8-1.8 4.8462-1.8 1.2923 0 2.423.2647 3.3923.7941 1.023.5294 1.723 1.3236 2.2615 2.3294.6462 1.1118.8615 2.2765.8615 3.653zm-8.4538 0c0 1.1647.1615 1.9588.4308 2.5412.2692.5823.7538.847 1.5077.847.7538 0 1.1846-.2647 1.5077-.847.2692-.5824.4307-1.4824.4307-2.5412 0-1.1647-.1615-1.9589-.4307-2.5412-.2693-.5294-.7539-.8471-1.5077-.8471-.6462 0-1.1847.2647-1.5077.8471-.2693.5823-.4308 1.3765-.4308 2.5412z"/><path d="m60.0532 19.5264h-4.4692v13.1294h4.4692z"/><path d="m60.0532 15.0264h-4.4692v2.9647h4.4692z"/><path d="m69.1538 29.3205c.5924 0 1.3462-.1588 2.1539-.4235v3.3353c-.5923.2647-1.1846.4235-1.7231.5294-.5384.1058-1.1846.1588-1.9384.1588-1.5077 0-2.5847-.3706-3.2847-1.1647-.6461-.7412-1.023-1.9059-1.023-3.4412v-5.4h-1.5616v-3.3882h1.5616v-3.2824l4.523-.7412v4.1294h2.9077v3.3353h-2.9077v5.0824c.1077.9.4847 1.2706 1.2923 1.2706z"/><path d="m79.6004 29.3204c.5923 0 1.3461-.1588 2.1538-.4235v3.3352c-.5923.2648-1.1846.4236-1.7231.5295-.5384.1058-1.1846.1588-1.9384.1588-1.5077 0-2.5846-.3706-3.2846-1.1647-.6462-.7412-1.0231-1.9059-1.0231-3.4412v-5.4h-1.5616v-3.3882h1.5616v-3.3353l4.5231-.6883v4.1294h2.9077v3.3353h-2.9077v5.0824c.0538.9.4846 1.2706 1.2923 1.2706z"/><path d="m93.8145 20.8498c-1.0769-1.0588-2.5846-1.5352-4.523-1.5352-2.0462 0-3.6616.5823-4.7923 1.8-1.1308 1.2176-1.6693 2.9117-1.6693 5.1352 0 2.1177.5923 3.8118 1.7769 4.9765 1.2385 1.1647 2.9077 1.7471 5.0616 1.7471 1.0769 0 1.9385-.053 2.6923-.2118.7-.1588 1.5077-.3706 2.1538-.7412l-.6461-2.9647c-.4846.2118-1.0231.3706-1.4539.4765-.6461.1588-1.4.2118-2.1538.2118-.8615 0-1.5615-.2118-2.0462-.5824-.4846-.4235-.7538-1.0059-.7538-1.747h8.0231v-2.0648c-.0539-1.9588-.6462-3.4411-1.6693-4.5zm-6.3538 3.653c.0538-.6882.2692-1.2706.5923-1.5882.3231-.3177.7539-.4765 1.3462-.4765.5384 0 1.0769.1588 1.4.5294.323.3706.4846.8471.5384 1.5353z"/><path d="m31.1916 20.8498c-1.1308-1.0588-2.5846-1.5352-4.5231-1.5352-2.0462 0-3.6615.5823-4.7923 1.8-1.1308 1.2176-1.6692 2.9117-1.6692 5.1352 0 2.1177.5923 3.8118 1.7769 4.9765 1.2384 1.1647 2.9077 1.7471 5.0615 1.7471 1.0769 0 1.9385-.053 2.6923-.2118.7-.1588 1.5077-.3706 2.1539-.7412l-.6462-3.0176c-.4846.2118-1.0231.3706-1.4538.4765-.6462.1588-1.4.2117-2.1539.2117-.8615 0-1.5615-.2117-2.0461-.5823-.4846-.4236-.7539-1.0059-.7539-1.7471h8.0231v-2.0118c-.0538-1.9588-.6462-3.4411-1.6692-4.5zm-6.4077 3.653c.0538-.6882.2692-1.2706.5923-1.5882.3231-.3177.7538-.4765 1.3461-.4765s1.077.1588 1.4.5294c.3231.3706.4847.8471.5385 1.5353z"/></g></svg>