<svg fill="none" height="48" viewBox="0 0 134 48" width="134" xmlns="http://www.w3.org/2000/svg" xmlns:xlink="http://www.w3.org/1999/xlink"><linearGradient id="a"><stop offset="0" stop-color="#011638"/><stop offset="1" stop-color="#4f6486"/></linearGradient><radialGradient id="b" cx="0" cy="0" gradientTransform="matrix(0 8.24546 -8.32378 0 12.3238 21.5121)" gradientUnits="userSpaceOnUse" r="1" xlink:href="#a"/><radialGradient id="c" cx="0" cy="0" gradientTransform="matrix(0 8.32833 -8.24261 0 13.2172 27.3977)" gradientUnits="userSpaceOnUse" r="1" xlink:href="#a"/><radialGradient id="d" cx="0" cy="0" gradientTransform="matrix(0 8.24261 -8.32833 0 19.1125 26.4994)" gradientUnits="userSpaceOnUse" r="1" xlink:href="#a"/><radialGradient id="e" cx="0" cy="0" gradientTransform="matrix(0 8.32833 -8.24546 0 18.2044 20.6037)" gradientUnits="userSpaceOnUse" r="1" xlink:href="#a"/><path d="m52.8893 28.862c-1.1569 0-1.5839-.5096-1.5839-1.3222 0-.9366.5234-1.4187 1.887-1.4187h1.8043v.5372c0 1.4324-.8815 2.2037-2.1074 2.2037zm-3.1403-1.1707c0 1.1156.6473 2.3139 2.6721 2.3139 1.1707 0 1.9833-.4545 2.548-1.1707l.1929.9917h1.2671v-5.3441c0-2.2864-1.3635-2.6859-2.9888-2.6859-1.2259 0-2.8374.3581-3.223 2.2038h1.5564c.1928-.6887.6611-1.0881 1.6528-1.0881.8127 0 1.584.2892 1.584 1.5839v.5648h-1.7079c-2.0798 0-3.5536.6886-3.5536 2.6307zm-4.1321 2.1349h1.46v-4.9034c0-1.1432.7025-1.6528 1.5978-1.6528.303 0 .6198.0138.9366.0689v-1.4187c-.2755-.0964-.5234-.1102-.7714-.1102-.8126 0-1.4462.4821-1.763 1.157l-.179-.9504h-1.281zm51.7884 0h1.46v-4.9034c0-1.1432.7024-1.6528 1.5977-1.6528.303 0 .62.0138.937.0689v-1.4187c-.276-.0964-.524-.1102-.772-.1102-.8123 0-1.4459.4821-1.7627 1.157l-.1791-.9504h-1.2809zm-27.4506-6.5562v-1.2809h-1.5977v-2.2313l-1.5013.2341v1.9972h-1.1294v1.2809h1.1294v4.9722c0 1.1157.4132 1.7906 2.0522 1.7906.3581 0 .8953-.0689 1.2259-.1653v-1.1156c-.3444.0964-.6612.1101-.8953.1101-.6887 0-.8815-.3305-.8815-1.0467v-4.5453zm44.0613 0v-1.2809h-1.611v-2.2313l-1.502.2341v1.9972h-1.129v1.2809h1.129v4.9722c0 1.1157.414 1.7906 2.053 1.7906.358 0 .895-.0689 1.225-.1653v-1.1156c-.344.0964-.661.1101-.895.1101-.689 0-.881-.3305-.881-1.0467v-4.5453zm-21.762 5.5369c-1.4049 0-2.3139-.9779-2.3139-2.9199 0-1.8595.9366-2.9062 2.3277-2.9062 1.4049 0 2.2313 1.033 2.2313 2.9888 0 1.9008-.854 2.8373-2.2451 2.8373zm26.115 0c-1.405 0-2.314-.9779-2.314-2.9199 0-1.8595.936-2.9062 2.327-2.9062 1.405 0 2.232 1.033 2.232 2.9888.013 1.9008-.854 2.8373-2.245 2.8373zm-15.95 1.0193h1.432v-4.5177c0-1.2947.565-2.2038 1.915-2.2038 1.267 0 1.653.5372 1.653 1.8594v4.8483h1.46v-5.2615c0-1.8043-.758-2.7409-2.466-2.7409-1.171 0-2.038.427-2.562 1.1708l-.179-.9917h-1.239v7.8371zm-44.1029 0h1.4187v-4.5177c0-1.2947.5647-2.2038 1.9145-2.2038 1.2672 0 1.6528.5372 1.6528 1.8594v4.8483h1.46v-5.2615c0-1.8043-.7575-2.7409-2.4655-2.7409-1.1707 0-2.0384.427-2.5618 1.1708l-.1791-.9917h-1.2396zm65.2309 0h1.419v-4.5177c0-1.2947.565-2.2038 1.915-2.2038 1.267 0 1.652.5372 1.652 1.8594v4.8483h1.46v-5.2615c0-1.8043-.757-2.7409-2.465-2.7409-1.171 0-2.039.427-2.562 1.1708l-.179-.9917h-1.24zm-43.6065-10.523v-1.2671h-8.333v1.2671h3.4021v10.5092h1.5702v-10.5092zm.7576 10.523h1.4186v-4.5177c0-1.2947.551-2.2038 1.9145-2.2038 1.2672 0 1.6529.5372 1.6529 1.8594v4.8483h1.46v-5.2615c0-1.8043-.7576-2.7409-2.4655-2.7409-1.1708 0-2.0385.427-2.5619 1.1708v-4.9447h-1.4186zm-40.9349-4.6692h2.7822v2.6169c-.8539.7438-2.1486 1.033-3.1954 1.033-2.617 0-4.1045-1.6941-4.1045-4.6692 0-3.1541 1.5977-4.9033 4.0769-4.9033 1.4738 0 2.5757.5234 3.6225 1.5151l.9228-1.0468c-.9366-1.033-2.5481-1.7906-4.38-1.7906-3.6913 0-5.8813 2.5757-5.8813 6.1843 0 3.5398 1.8181 5.9915 5.7711 5.9915 2.1763 0 3.8704-.9504 4.7106-1.8594v-4.2698h-4.3111v1.1983zm52.601-3.3608c-2.5894 0-3.953 1.7906-3.953 4.1459 0 2.4379 1.3498 4.0494 3.774 4.0494 2.4103 0 3.9116-1.584 3.9116-4.0908 0-2.5756-1.3911-4.1045-3.7326-4.1045zm26.1148 0c-2.603 0-3.953 1.7906-3.953 4.1459 0 2.4379 1.35 4.0494 3.774 4.0494 2.41 0 3.911-1.584 3.911-4.0908 0-2.5756-1.391-4.1045-3.732-4.1045z" fill="#011638"/><path d="m15.716 19.4825c1.8456.5923 3.3056 1.9558 4.2973 3.9117.1377.2617.2066.6473.124.8815.0275-.0964.0688-.1791.0964-.2755 2.369-7.4377-6.019-12.4375-10.27506-10.1924-.08264.0413-.16528.0827-.24792.1377-5.46808 3.2506-7.31373 10.2889-4.20092 15.812-2.23131-4.256 2.7547-12.644 10.2062-10.275z" fill="url(#b)"/><path d="m11.1986 24.0009c.5922-1.8456 1.9558-3.3056 3.9116-4.2973.2617-.1377.6474-.2066.8815-.124-.0964-.0275-.179-.0688-.2754-.0964-7.43772-2.369-12.4375 6.019-10.20619 10.275.04132.0827.08264.1653.13773.248 3.26432 5.4818 10.28886 7.3275 15.81196 4.2009-4.2422 2.2313-12.63028-2.7685-10.2612-10.2062z" fill="url(#c)"/><path d="m15.7158 28.5181c-1.8457-.5923-3.3057-1.9558-4.2974-3.9117-.1377-.2617-.2066-.6473-.1239-.8815-.0276.0964-.0689.1791-.0964.2755-2.36909 7.4377 6.019 12.4375 10.275 10.2062.0826-.0414.1653-.0827.2479-.1378 5.4819-3.2643 7.3275-10.2888 4.2009-15.812 2.2176 4.2423-2.7684 12.6303-10.2061 10.2613z" fill="url(#d)"/><path d="m20.234 24.0005c-.5922 1.8456-1.9558 3.3056-3.9117 4.2973-.2617.1377-.6473.2066-.8815.124.0965.0275.1791.0688.2755.0964 7.4377 2.369 12.4375-6.019 10.1924-10.2751-.0413-.0826-.0826-.1652-.1377-.2479-3.2644-5.4818-10.2888-7.3275-15.81202-4.2009 4.25602-2.2313 12.64412 2.7685 10.27502 10.2062z" fill="url(#e)"/></svg>