<svg fill="none" height="48" viewBox="0 0 124 48" width="124" xmlns="http://www.w3.org/2000/svg"><g clip-rule="evenodd" fill="#011638" fill-rule="evenodd"><path d="m25.0063 17.8334c-.3795-.3162-.8224-.6323-1.2652-.759l-.7591 14.8633 3.6685-10.2457c.3795-1.5821-.5056-2.9101-1.6442-3.8586zm-6.0716-.8858 2.1504 14.8 2.1504-14.8c-1.2653-.4422-2.9088-.5056-4.3008 0zm-1.7709.8858c-1.2019.9491-2.0237 2.2771-1.7075 3.7952l3.6685 10.2457-.6957-14.7999c-.4429.1267-.9491.4428-1.2653.759zm-7.46237 1.3913c2.46657 4.3008 4.99647 8.9805 7.39967 13.0912-.8224-3.6045-1.7075-9.6128-2.9721-11.3209-1.4554-2.0237-4.42757-1.7703-4.42757-1.7703zm-4.36415 2.1504 10.05562 11.7005-6.19772-13.7875c-1.64414.0627-3.03616.8858-3.8579 2.087zm21.06042 3.1623-1.6442 8.0313c2.1504-3.7305 4.3008-7.399 6.3879-11.1936-2.0244.1895-4.048.9485-4.7437 3.1623zm5.3126-3.1623-5.3126 11.8899 9.3606-10.1823c-1.0752-1.1386-2.4672-1.6442-4.048-1.7076zm-27.70102 5.3127c3.28896 2.5292 6.57722 5.1232 9.86622 7.6524l-8.85438-12.5222c-.82241 1.3914-1.0752 3.0355-1.01184 4.8698zm32.88692-2.1504c-.1944-.3964-.4506-.7593-.759-1.0752l-8.0954 11.0041c3.1712-2.3582 6.2921-4.7833 9.3607-7.2736.0633-.9485-.0634-1.8963-.5063-2.6553zm-32.82421 7.2736 8.53821 3.9199c-2.84607-2.8454-5.69214-5.5654-8.53821-8.3481zm33.33051.2528v-4.048l-8.0954 7.9065c2.7827-1.2666 5.3127-2.5312 8.0954-3.8585zm-33.39322 3.6671c2.59328.5696 5.43936 1.266 7.77922 1.7716l-7.77922-5.1232zm33.39322.1908v-3.0989c-2.4032 1.5808-4.9331 3.1622-7.1469 4.743zm-33.39322 3.6678h7.58912l-7.58912-3.2256zm33.39322 0v-2.9728c-2.4666 1.0752-4.617 1.961-6.9568 2.9728z"/><path d="m34.8098 17.4546c.1261-4.4902-6.5773-4.5536-6.4505 0-.0634 4.1741 6.6406 4.3642 6.4505 0zm-21.5667-2.3398c.1901-4.5536-6.83067-4.3635-6.57722 0-.25279 4.5536 7.02012 4.617 6.57722 0zm7.8426.8851c2.656.0634 3.6685-1.8342 3.7312-3.6685.1267-2.78268-1.6442-3.92124-3.7312-3.92124-2.0871 0-3.7312 1.20192-3.6685 3.92124.0634 1.5188.6957 3.6051 3.6685 3.6685zm38.0735 10.4992h1.4547v-8.4122h-1.4547zm-2.7827-2.4039.8224 2.4039h1.5174l-2.9094-8.4122h-1.8336l-2.4666 7.1469-2.4032-3.0362 3.2256-4.1107h-1.7081l-2.9728 3.984v-3.984h-1.4548v8.4122h1.4548v-4.1114l3.0988 4.1114h1.7075l.8224-2.4039zm-1.5815-4.6803 1.2013 3.4791h-2.3398zm14.9254 17.8355-1.454-6.135h-2.594v8.4749h1.4554v-7.2103l1.8342 7.2103h1.5175l1.8342-7.2103v7.2103h1.3907v-8.4749h-2.4659zm7.6538-6.135-2.9094 8.4749h1.454l.759-2.4659h3.0989l.8224 2.4659h1.5174l-2.9094-8.4749zm-.3175 4.8704 1.1386-3.5424 1.2012 3.5424zm11.0054 1.6435-3.3516-6.5139h-1.961v8.4749h1.3907v-6.3879l3.3517 6.3879h1.9609v-8.4749h-1.3907zm27.7009.6963h-3.478v-2.3398h2.529v-1.266h-2.529v-2.3398h3.162v-1.2646h-4.618v8.4749h4.934zm-13.345-7.2102h-.253v6.5772l-3.3515-6.5772h-1.961v7.2102h-4.4269v-2.3398h2.5927v-1.266h-2.5927v-2.3398h3.1623v-1.2646h-4.6176v8.4749h7.2729v-6.4506l3.3528 6.4506h1.96v-7.2103h2.594v7.2103h1.454v-7.2103h2.53l-.063-1.2646zm-38.8326 4.2374c.4435-.4422.8224-1.0118.8224-1.8342 0-.7591-.3789-1.3907-.8224-1.7702-.5056-.4436-1.2013-.633-2.4659-.633h-2.4032v7.2102h-4.4902v-2.3398h2.5933v-1.266h-2.5933v-2.3398h3.1622v-1.2646h-4.6169v8.4749h7.3996v-3.6045h.6957c.6963 1.0752 2.1504 3.6045 2.1504 3.6045h1.7082l-2.2778-3.7319c.5062-.0634.8224-.2528 1.1379-.5056zm-3.4144-.5683v-2.4045h1.2013c1.1399 0 1.5814.4436 1.5814 1.1386 0 .8224-.4422 1.2659-1.5814 1.2659zm15.1789-11.8278h.7577c.633 1.0118 2.087 3.5424 2.087 3.5424h1.7082l-2.2765-3.6691c.5056-.1261.8858-.3162 1.1386-.569.4422-.3795.8224-1.0118.8224-1.7709 0-.8217-.3168-1.3913-.8224-1.7708-.5069-.4429-1.2013-.6324-2.4032-.6324h-2.4672v7.2103h-4.4902v-2.4032h2.5939v-1.2019h-2.5939v-2.4032h3.2256v-1.2013h-4.6163v8.4122h7.3363zm0-1.328v-2.3398h1.2646c1.0752 0 1.5174.4429 1.5174 1.2012 0 .8224-.4422 1.202-1.5174 1.202h-1.2646zm-24.2861 10.1197c-.5062-.4436-1.2019-.633-2.4038-.633h-2.4666v8.4749h1.4548v-3.4784h1.0118c1.2019 0 1.8976-.1895 2.4038-.633.4423-.4422.8218-1.0752.8218-1.8976.0045-.3469-.0667-.6906-.2087-1.0071-.1419-.3166-.3511-.5984-.6131-.8258zm-2.2137 3.0995h-1.2019v-2.4672h1.2019c1.1385 0 1.5814.5069 1.5814 1.2012 0 .7591-.5062 1.266-1.5814 1.266zm18.215-10.7527c0-1.2012-.7591-1.9603-2.2138-2.5299-1.1385-.3795-1.7081-.6956-1.7081-1.3913 0-.5063.5069-1.0752 1.5814-1.0752.695 0 1.4541.2528 1.7702.4429v-1.202c-.3161-.1894-1.0752-.3795-1.7702-.3795-1.8342 0-3.0362 1.0118-3.0362 2.3398 0 1.2653.9492 1.9604 2.3399 2.4666 1.0752.3795 1.5808.759 1.5808 1.4547s-.6317 1.2019-1.6435 1.2019c-.7591 0-1.7716-.2534-2.2765-.6329v1.328c.4422.2528 1.328.5069 2.2138.5069 2.1504 0 3.1622-1.2013 3.1622-2.53zm49.7099 13.7235c0-.8211.633-1.454 1.454-1.454.822 0 1.455.6329 1.455 1.454.004.192-.032.3827-.104.5606-.072.178-.179.3397-.315.4755-.136.1357-.297.2428-.475.3149-.178.072-.369.1075-.561.1044-.821.0007-1.454-.6323-1.454-1.4554zm1.454 1.7716c.949 0 1.772-.7591 1.772-1.7716s-.823-1.7702-1.772-1.7702-1.77.7577-1.77 1.7702.822 1.7716 1.77 1.7716zm-.379-1.6449h.379l.507.8858h.379l-.633-.8858c.317-.0633.569-.1894.569-.5683 0-.3788-.252-.5696-.759-.5696h-.757v2.0237h.316zm0-.2528v-.6316h.442c.19 0 .444.0634.444.3161 0 .3162-.254.3162-.507.3162z"/></g></svg>