<svg width="158" height="48" viewBox="0 0 158 48" fill="none" xmlns="http://www.w3.org/2000/svg">
<path d="M121.064 15.2095C121.064 15.2095 121.064 27.4194 121.064 27.4194C121.064 28.0226 121.412 28.3751 121.77 28.597C122.155 28.831 122.719 28.9482 123.479 28.9482C123.96 28.9482 124.596 28.8036 124.596 28.8036C124.596 28.8036 124.596 27.7086 124.596 27.7086C124.405 27.7193 124.236 27.7293 124.049 27.7293C122.917 27.7293 122.75 27.3284 122.75 26.8822C122.75 26.8822 122.75 15.2095 122.75 15.2095L121.064 15.2095ZM85.4486 15.3334C84.1776 15.3334 83.0287 15.6949 82.2129 16.3458C81.4207 16.9806 80.9824 17.857 80.9824 18.8043C80.9825 19.8475 81.4481 20.6627 82.418 21.3041C83.2734 21.8704 84.4048 22.2361 85.4942 22.585C87.3879 23.1957 89.1628 23.7531 89.1628 25.3121C89.1628 26.0054 88.9026 26.5998 88.4108 27.0062C87.87 27.4531 87.092 27.6673 86.0638 27.6673C84.2616 27.6673 82.9495 26.7626 82.2129 25.0022C82.2129 25.0022 80.5951 25.3947 80.5951 25.3947C80.9435 26.1086 81.5362 27.1389 82.3952 27.8326C83.337 28.5987 84.506 28.9688 85.9727 28.9688C87.7094 28.9688 89.0279 28.5627 89.8919 27.7499C90.7877 26.9039 90.9857 25.8211 90.9857 25.0642C90.9857 23.9795 90.48 23.142 89.459 22.4817C88.5676 21.902 87.4141 21.5283 86.2917 21.1801C84.4628 20.6131 82.7176 20.0735 82.737 18.6803C82.7434 18.0307 82.9919 17.525 83.4434 17.1721C83.9035 16.8137 84.5592 16.635 85.403 16.635C86.2893 16.635 87.0796 16.8596 87.6817 17.2961C88.2353 17.6937 88.6381 18.2836 88.821 18.9489L90.3932 18.7629C89.7035 16.6308 88.0176 15.3334 85.4486 15.3334ZM13.375 15.5194V28.7829H15.0612V16.6557L15.1068 16.697L19.1172 28.7829H20.416L24.4492 16.697L24.472 16.6557V28.7829H26.1582V15.5194H23.3555L19.778 26.1798V26.2211L19.7552 26.1798L16.1777 15.5194H13.375ZM93.6517 15.7879V18.9695H92.0339V20.1885C92.0339 20.1885 93.6517 20.1885 93.6517 20.1885C93.6517 20.1885 93.6517 27.0058 93.6517 27.4194C93.6517 28.0226 93.9546 28.3751 94.3125 28.597C94.6977 28.831 95.2604 28.9482 96.0215 28.9482C96.5031 28.9482 97.1608 28.8036 97.1608 28.8036C97.1608 28.8036 97.1608 27.7086 97.1608 27.7086C96.9736 27.7193 96.7777 27.7293 96.5912 27.7293C95.4579 27.7293 95.3379 27.3284 95.3379 26.8822C95.3379 26.8822 95.3379 20.1885 95.3379 20.1885H97.1608V18.9695H95.3379V15.7879H93.6517ZM32.9941 18.7836C31.5743 18.7836 30.3709 19.3023 29.5306 20.2711C28.7508 21.1752 28.3229 22.4525 28.3229 23.8659C28.3229 25.2806 28.7508 26.5555 29.5306 27.4607C30.3709 28.4321 31.5743 28.9482 32.9941 28.9482C34.4198 28.9482 35.6196 28.4321 36.4577 27.4607C37.2376 26.5555 37.6654 25.2806 37.6654 23.8659C37.6654 22.4525 37.2376 21.1753 36.4577 20.2711C35.6196 19.3023 34.4198 18.7836 32.9941 18.7836ZM130.27 18.8043C129.549 18.8043 128.879 18.9244 128.31 19.1555C127.753 19.383 127.259 19.7254 126.874 20.1678C126.11 21.036 125.667 22.325 125.667 23.8866C125.667 25.6245 126.217 26.9506 127.216 27.8326C128.27 28.7649 129.612 28.9482 130.543 28.9482C132.962 28.9482 134.149 27.7613 134.645 26.6756C134.645 26.6756 133.3 26.0765 133.3 26.0765C132.973 26.7375 132.222 27.7499 130.543 27.7499C129.583 27.7499 128.798 27.3937 128.242 26.7376C127.704 26.1027 127.401 25.224 127.398 24.1758C127.398 24.1758 134.781 24.1758 134.781 24.1758C134.781 24.1758 134.781 23.2461 134.781 23.2461C134.781 21.6402 134.31 20.4426 133.437 19.7133C132.694 19.0938 131.651 18.8043 130.27 18.8043ZM50.2663 18.8249C48.3639 18.8249 45.6634 19.9855 45.6634 23.8866C45.6634 27.6743 48.3555 28.9482 50.1751 28.9482C51.2372 28.9482 52.2022 28.4147 52.8639 27.6466C52.8639 27.6466 52.9551 27.6053 52.9551 27.6053C52.9551 27.6053 52.9551 29.4647 52.9551 29.4647C52.9551 30.7688 51.7102 31.572 50.3802 31.572C49.0871 31.572 47.9424 31.3481 47.0078 30.9522C47.0078 30.9522 47.0078 32.2744 47.0078 32.2744C47.7948 32.5803 49.0756 32.7702 50.1751 32.7702C53.1684 32.7702 54.5957 31.2766 54.5957 29.1135C54.5957 29.1135 54.5957 19.0109 54.5957 19.0109H53.3425L52.9779 20.0439C52.3593 19.313 51.5493 18.8249 50.2663 18.8249ZM61.1582 18.8249C58.7634 18.8249 57.6295 20.1256 57.1478 20.9322L58.4922 21.5727C58.6809 21.1118 59.3601 20.0439 61.181 20.0439C62.6168 20.0439 63.3457 20.6184 63.3457 21.7586V22.1098C63.3457 22.1098 63.3575 22.2166 63.3229 22.2544C63.2696 22.3155 63.1184 22.3654 62.7533 22.3991C60.743 22.6024 59.4067 22.9018 58.4238 23.4734C57.3568 24.0952 56.6921 24.9658 56.6921 26.1591C56.6921 27.0068 57.1448 27.7304 57.7402 28.2458C58.2939 28.7204 59.0484 28.9674 59.8822 28.9895C61.657 29.0411 62.8254 28.3714 63.3913 27.5847C63.4352 28.1252 63.6489 28.4341 64.1204 28.659C64.5633 28.8734 65.2897 28.8308 65.6016 28.7623C65.6016 28.7623 65.6016 27.7293 65.6016 27.7293C65.2257 27.7122 64.9863 27.5502 64.9863 27.1301C64.9863 27.1301 64.9863 22.3991 64.9863 22.3991C64.9863 22.3991 64.9863 21.7793 64.9863 21.7793C64.9863 20.8029 64.5637 20.0021 63.7559 19.486C63.0898 19.0575 62.1591 18.8249 61.1582 18.8249ZM72.7565 18.8249C71.6591 18.8249 70.536 19.3404 69.5892 20.3124V19.0109H67.903V28.8036H69.5892C69.5892 28.8036 69.5892 21.5314 69.5892 21.5314C70.163 20.9755 71.449 20.0439 72.6198 20.0439C73.7935 20.0439 74.306 20.5658 74.306 21.7379C74.306 21.7379 74.306 28.8036 74.306 28.8036H75.9922V21.6966C75.9922 19.5808 74.3326 18.8249 72.7565 18.8249ZM103.268 18.8249C100.874 18.8249 99.7404 20.1256 99.2572 20.9322C99.2572 20.9322 100.602 21.5727 100.602 21.5727C100.791 21.1118 101.469 20.0439 103.29 20.0439C104.726 20.0439 105.455 20.6184 105.455 21.7586C105.455 21.7586 105.455 22.1098 105.455 22.1098C105.455 22.1098 105.443 22.2166 105.41 22.2544C105.357 22.3155 105.229 22.3654 104.863 22.3991C102.852 22.6021 101.516 22.9018 100.533 23.4734C99.4668 24.0952 98.8015 24.9658 98.8015 26.1591C98.8015 27.0068 99.2533 27.73 99.8496 28.2458C100.403 28.7204 101.158 28.9674 101.992 28.9895C103.765 29.0411 104.935 28.3714 105.501 27.5847C105.545 28.125 105.757 28.4341 106.23 28.659C106.672 28.8734 107.399 28.8308 107.711 28.7623C107.711 28.7623 107.711 27.7293 107.711 27.7293C107.336 27.7122 107.096 27.5502 107.096 27.1301C107.096 27.1301 107.096 22.3991 107.096 22.3991C107.096 22.3991 107.096 21.7793 107.096 21.7793C107.096 20.8029 106.651 20.0021 105.842 19.486C105.176 19.0575 104.268 18.8249 103.268 18.8249ZM114.866 18.8249C113.766 18.8249 112.645 19.3404 111.699 20.3124V19.0109H110.012V28.8036H111.699C111.699 28.8036 111.699 21.5314 111.699 21.5314C112.273 20.9751 113.557 20.0439 114.729 20.0439C115.901 20.0439 116.415 20.5658 116.415 21.7379V28.8036H118.102V21.6966C118.102 19.5808 116.442 18.8249 114.866 18.8249ZM45.0254 18.8662C43.3146 18.8662 42.3007 19.4676 41.4251 20.8909V20.7876V19.0109H39.7389V28.7829H41.4251C41.4251 28.7829 41.4251 23.2461 41.4251 23.2461C41.8414 21.2347 43.0159 20.2918 45.0254 20.2918V18.8662ZM135.921 18.9902L139.68 28.7003C139.68 28.7003 139.68 28.7829 139.68 28.7829C139.456 29.7135 138.806 30.8623 138.222 31.2208C137.706 31.538 137.148 31.572 136.718 31.572C136.511 31.572 136.082 31.5085 135.898 31.4687C135.898 31.4687 135.898 32.6463 135.898 32.6463C136.131 32.6982 136.669 32.7909 137.014 32.7909C137.818 32.7909 138.496 32.6085 139.065 32.2331C139.747 31.7837 140.502 30.6123 140.865 29.6093C140.865 29.6093 144.625 18.9902 144.625 18.9902H142.984L140.523 26.5103L140.501 26.6756L140.455 26.5103L137.561 18.9902H135.921ZM32.9941 20.0025C34.8094 20.0025 35.888 21.4471 35.888 23.8659C35.888 26.2853 34.8094 27.7293 32.9941 27.7293C31.1818 27.7293 30.1003 26.2853 30.1003 23.8659C30.1002 21.4471 31.1818 20.0025 32.9941 20.0025ZM50.3802 20.0232C51.3315 20.0232 52.1667 20.3959 52.9551 21.2834C52.9551 21.2834 52.9551 25.9525 52.9551 25.9525C52.5187 27.0787 51.2688 27.7293 50.3802 27.7293C48.6413 27.7293 47.4408 26.7476 47.4408 23.8039C47.4408 21.3287 48.5182 20.0232 50.3802 20.0232ZM130.315 20.0232C132.247 20.0232 133.111 20.9494 133.118 22.9569C133.118 22.9569 127.444 22.9569 127.444 22.9569C127.591 20.951 128.518 20.0232 130.315 20.0232ZM63.3913 23.4734C63.3913 23.4734 63.3913 25.9525 63.3913 25.9525C63.3135 26.8084 61.5494 27.8444 60.11 27.7706C59.3159 27.7311 58.5507 27.1513 58.4694 26.2004C58.3376 24.6115 59.6545 23.9518 62.5938 23.6593C62.7982 23.6423 63.1939 23.5765 63.3913 23.4734ZM105.501 23.4734V25.9525C105.423 26.8081 103.659 27.8444 102.219 27.7706C101.427 27.7308 100.658 27.151 100.579 26.2004C100.445 24.6115 101.763 23.9518 104.703 23.6593C104.906 23.6423 105.305 23.5765 105.501 23.4734Z" fill="#011638"/>
</svg>
