<svg width="122" height="48" viewBox="0 0 122 48" fill="none" xmlns="http://www.w3.org/2000/svg">
<g clip-path="url(#clip0_2156_787)">
<path d="M46.9235 23.2707C45.5061 22.9468 43.7242 22.3798 43.1168 22.1368C42.6308 21.9748 42.4688 21.8939 42.3878 21.8939C40.3225 21.7724 38.6621 20.193 38.6621 17.4392C38.6621 15.5764 39.3911 13.4705 40.687 12.1746C41.6589 11.2027 43.0358 10.6357 44.4127 10.6357C47.3689 10.6357 48.5433 12.8226 48.5433 15.0904C48.5433 16.8722 47.8954 19.0186 46.64 20.274C46.073 20.8409 45.2631 21.3269 44.5341 21.5294V21.5699C45.5061 21.7724 46.5185 21.9748 47.4499 22.1368L46.9235 23.2707ZM41.7399 12.8631C40.6869 13.916 40.039 15.9003 40.039 17.3987C40.039 19.1401 40.8084 20.8004 42.9143 20.8004C43.9267 20.8004 44.7771 20.3955 45.4251 19.7475C46.478 18.6946 47.0854 16.6698 47.0854 15.1714C47.0854 13.754 46.5995 11.8101 44.2102 11.8101C43.2787 11.8101 42.4283 12.2151 41.7399 12.8631Z" fill="#011638"/>
<path d="M56.8851 13.9158L55.8322 19.4638C55.6702 20.3548 55.5487 21.0837 55.4677 21.7317H54.2528L54.4553 20.2738H54.4148C53.7264 21.2862 52.6735 21.9341 51.661 21.9341C50.6486 21.9341 49.5957 21.4482 49.5957 19.6663C49.5957 19.3018 49.6362 18.8564 49.7577 18.3704L50.6081 13.9158H51.9445L51.1346 18.2894C51.0536 18.7349 50.9726 19.0994 50.9726 19.4233C50.9726 20.2333 51.2966 20.8002 52.228 20.8002C53.1999 20.8002 54.4553 19.6663 54.7793 17.925L55.5487 13.9158H56.8851Z" fill="#011638"/>
<path d="M63.446 21.3278C62.879 21.6518 61.9071 21.9352 60.8542 21.9352C58.7888 21.9352 57.8574 20.5178 57.8574 18.7765C57.8574 16.4277 59.5988 13.7549 62.1501 13.7549C63.6485 13.7549 64.4584 14.6458 64.4584 15.7797C64.4584 17.8451 62.1501 18.3715 59.2343 18.331C59.1533 18.655 59.2343 19.3839 59.3963 19.8294C59.7203 20.5178 60.3277 20.8823 61.1377 20.8823C62.0691 20.8823 62.7575 20.5988 63.2435 20.3154L63.446 21.3278ZM61.9476 14.8078C60.6517 14.8078 59.7203 16.0632 59.3963 17.2781C61.5021 17.2781 63.1625 17.0351 63.1625 15.8202C63.122 15.1723 62.636 14.8078 61.9476 14.8078Z" fill="#011638"/>
<path d="M70.7761 21.3278C70.2091 21.6518 69.2372 21.9352 68.1843 21.9352C66.1189 21.9352 65.1875 20.5178 65.1875 18.7765C65.1875 16.4277 66.9289 13.7549 69.4802 13.7549C70.9785 13.7549 71.7885 14.6458 71.7885 15.7797C71.7885 17.8451 69.4802 18.3715 66.5644 18.331C66.4834 18.655 66.5644 19.3839 66.7264 19.8294C67.0504 20.5178 67.6578 20.8823 68.4677 20.8823C69.3992 20.8823 70.0876 20.5988 70.5736 20.3154L70.7761 21.3278ZM69.2777 14.8078C67.9818 14.8078 67.0504 16.0632 66.7264 17.2781C68.8322 17.2781 70.4926 17.0351 70.4926 15.8202C70.4926 15.1723 70.0066 14.8078 69.2777 14.8078Z" fill="#011638"/>
<path d="M72.4365 21.7728L73.4894 16.2247C73.6514 15.3338 73.7729 14.6049 73.8539 13.9569H75.0688L74.8663 15.4958H74.9068C75.5953 14.4024 76.6482 13.7949 77.8226 13.7949C78.754 13.7949 79.8069 14.3214 79.8069 15.9817C79.8069 16.3057 79.7259 16.8322 79.645 17.2371L78.754 21.8133H77.4176L78.2681 17.2776C78.3491 16.9537 78.3896 16.5892 78.3896 16.2652C78.3896 15.4553 78.0656 14.8883 77.1746 14.8883C76.2027 14.8883 74.8663 16.0222 74.5019 17.9661L73.7729 21.7728H72.4365Z" fill="#011638"/>
<path d="M81.1833 20.3958C81.5478 20.6388 82.2362 20.8818 82.8842 20.8818C83.7751 20.8818 84.3825 20.3148 84.3825 19.5859C84.3825 18.9785 84.0991 18.614 83.2891 18.128C82.3982 17.6421 81.8717 16.9131 81.8717 16.1437C81.8717 14.7668 83.0461 13.7139 84.7065 13.7139C85.4355 13.7139 86.0429 13.9164 86.3264 14.1188L85.9619 15.1313C85.6784 14.9693 85.1925 14.7668 84.585 14.7668C83.7751 14.7668 83.2081 15.2527 83.2081 15.9412C83.2081 16.5081 83.5726 16.8726 84.261 17.2371C85.152 17.7231 85.7189 18.4115 85.7189 19.3024C85.7189 20.9628 84.3825 21.8942 82.7222 21.8942C81.8717 21.8942 81.1428 21.6512 80.7783 21.3678L81.1833 20.3958Z" fill="#011638"/>
<path d="M87.1768 21.7726L89.3636 10.2715H90.7L88.5132 21.7726H87.1768Z" fill="#011638"/>
<path d="M96.0458 21.7732C96.0458 21.2873 96.1268 20.5583 96.2078 19.7484H96.1673C95.3168 21.3683 94.2234 21.9352 93.13 21.9352C91.7531 21.9352 90.8622 20.8418 90.8622 19.3434C90.8622 16.6302 92.887 13.7549 96.2888 13.7549C97.0177 13.7549 97.8681 13.8764 98.3946 14.0789L97.5847 18.169C97.3417 19.5459 97.2202 20.9228 97.2607 21.8137H96.0458V21.7732ZM96.9367 14.9293C96.7342 14.8888 96.4507 14.8078 96.0053 14.8078C93.9804 14.8078 92.3201 16.9136 92.3201 19.1005C92.3201 19.9914 92.644 20.8418 93.6565 20.8418C94.7904 20.8418 96.0863 19.3839 96.4912 17.2781L96.9367 14.9293Z" fill="#011638"/>
<path d="M99.3262 21.7728L100.379 16.2247C100.541 15.3338 100.663 14.6049 100.744 13.9569H101.958L101.756 15.4958H101.796C102.485 14.4024 103.538 13.7949 104.712 13.7949C105.644 13.7949 106.697 14.3214 106.697 15.9817C106.697 16.3057 106.616 16.8322 106.535 17.2371L105.644 21.7728H104.307L105.158 17.2371C105.239 16.9132 105.279 16.5487 105.279 16.2247C105.279 15.4148 104.955 14.8478 104.064 14.8478C103.092 14.8478 101.756 15.9817 101.392 17.9256L100.663 21.7323H99.3262V21.7728Z" fill="#011638"/>
<path d="M116.294 10.2715L114.593 19.3023C114.431 20.1122 114.309 21.0031 114.269 21.7726H113.054L113.256 20.2337H113.216C112.487 21.3676 111.515 21.9751 110.381 21.9751C108.842 21.9751 108.032 20.7197 108.032 19.1403C108.032 16.346 110.098 13.7947 112.892 13.7947C113.378 13.7947 113.945 13.9162 114.269 14.0782L114.957 10.312H116.294V10.2715ZM114.066 15.1716C113.783 15.0096 113.337 14.8476 112.77 14.8476C110.908 14.8476 109.45 16.832 109.45 18.9378C109.45 19.8692 109.774 20.8816 110.908 20.8816C111.96 20.8816 113.175 19.7072 113.54 17.9254L114.066 15.1716Z" fill="#011638"/>
<path d="M41.416 34.2849L40.2821 37.7271H38.8242L42.5499 26.793H44.2508L47.9765 37.7271H46.4781L45.3037 34.2849H41.416ZM44.9797 33.1915L43.9268 30.0327C43.6838 29.3038 43.5218 28.6558 43.3599 28.0484H43.3194C43.1574 28.6963 42.9954 29.3443 42.7524 30.0327L41.6995 33.1915H44.9797Z" fill="#011638"/>
<path d="M55.8736 35.581C55.8736 36.391 55.8736 37.1199 55.9546 37.7274H54.6992L54.6182 36.4315H54.5777C54.2132 37.0794 53.3628 37.8893 51.9859 37.8893C50.771 37.8893 49.2726 37.2009 49.2726 34.4471V29.871H50.69V34.2041C50.69 35.7025 51.1354 36.7149 52.4313 36.7149C53.4033 36.7149 54.0512 36.067 54.2942 35.419C54.3752 35.2165 54.4157 34.9331 54.4157 34.6901V29.871H55.8331V35.581H55.8736Z" fill="#011638"/>
<path d="M65.0256 26.2267V35.7029C65.0256 36.3914 65.0256 37.2013 65.1066 37.7278H63.8107L63.7297 36.3509H63.6892C63.2438 37.2418 62.3123 37.8898 61.0164 37.8898C59.1131 37.8898 57.6552 36.2699 57.6552 33.9211C57.6552 31.3293 59.2751 29.7094 61.1784 29.7094C62.3933 29.7094 63.2033 30.2764 63.5272 30.9243H63.5677V26.2267H65.0256ZM63.5677 33.0706C63.5677 32.9087 63.5677 32.6657 63.4868 32.4632C63.2843 31.5723 62.5148 30.8028 61.4214 30.8028C59.9635 30.8028 59.0726 32.0987 59.0726 33.8401C59.0726 35.4195 59.842 36.7559 61.3809 36.7559C62.3528 36.7559 63.2033 36.1079 63.4868 35.055C63.5272 34.8525 63.5677 34.65 63.5677 34.4475V33.0706Z" fill="#011638"/>
<path d="M68.9544 27.684C68.9544 28.17 68.6304 28.5749 68.0634 28.5749C67.5775 28.5749 67.213 28.17 67.213 27.684C67.213 27.1981 67.5775 26.7931 68.1039 26.7931C68.6304 26.7931 68.9544 27.1576 68.9544 27.684ZM67.375 37.7272V29.8708H68.7924V37.7272H67.375Z" fill="#011638"/>
<path d="M72.8822 27.6445V29.9124H74.9071V31.0058H72.8822V35.2174C72.8822 36.1894 73.1657 36.7563 73.9351 36.7563C74.2996 36.7563 74.5831 36.7158 74.7451 36.6753L74.8261 37.7282C74.5426 37.8497 74.0971 37.9307 73.5707 37.9307C72.9227 37.9307 72.3558 37.7282 72.0318 37.3233C71.6268 36.9183 71.4648 36.1894 71.4648 35.2984V30.9653H70.2499V29.8719H71.4648V28.009L72.8822 27.6445Z" fill="#011638"/>
<path d="M89.3245 32.1399C89.3245 35.9061 87.0567 37.8904 84.2624 37.8904C81.3871 37.8904 79.3623 35.6631 79.3623 32.3423C79.3623 28.8596 81.5086 26.5918 84.4244 26.5918C87.4212 26.6323 89.3245 28.9001 89.3245 32.1399ZM80.8607 32.3423C80.8607 34.6912 82.1161 36.7565 84.3434 36.7565C86.5707 36.7565 87.8261 34.6912 87.8261 32.2209C87.8261 30.034 86.6922 27.7662 84.3434 27.7662C82.0351 27.7662 80.8607 29.9125 80.8607 32.3423Z" fill="#011638"/>
<path d="M101.189 27.6033C100.825 27.3604 100.258 27.1984 99.6098 27.1984C98.1114 27.1984 97.6659 28.2513 97.6659 29.5067V29.9116H102.242V37.768H100.784V30.9646H97.6659V37.7275H96.2485V30.9646H92.9278V37.7275H91.5104V30.9646H90.417V29.8712H91.5104V29.5877C91.5104 28.6158 91.7534 27.6438 92.4418 26.9959C92.8873 26.5099 93.5757 26.2264 94.4667 26.2264C94.9931 26.2264 95.5601 26.4289 95.8436 26.5504L95.4386 27.6033C95.1956 27.4818 94.8311 27.3199 94.4667 27.3199C94.0212 27.3199 93.6972 27.4818 93.4543 27.7248C93.0493 28.1298 92.9278 28.8587 92.9278 29.5472V29.8712H96.2485V29.4662C96.2485 27.4008 97.4634 26.0645 99.6908 26.0645C100.42 26.0645 101.23 26.2669 101.635 26.5504L101.189 27.6033Z" fill="#011638"/>
<path d="M110.18 37.4439C109.815 37.6464 108.965 37.8893 107.912 37.8893C105.563 37.8893 104.024 36.2695 104.024 33.8802C104.024 31.4503 105.685 29.709 108.236 29.709C109.087 29.709 109.815 29.9115 110.22 30.114L109.896 31.2074C109.572 31.0049 109.006 30.8429 108.236 30.8429C106.454 30.8429 105.482 32.1793 105.482 33.7992C105.482 35.6215 106.657 36.7149 108.196 36.7149C109.006 36.7149 109.532 36.5124 109.937 36.31L110.18 37.4439Z" fill="#011638"/>
<path d="M112.529 34.0426C112.569 35.9864 113.784 36.7559 115.202 36.7559C116.214 36.7559 116.821 36.5939 117.388 36.3509L117.631 37.3633C117.145 37.6063 116.254 37.8493 115.04 37.8493C112.61 37.8493 111.192 36.2699 111.192 33.8806C111.192 31.4913 112.569 29.6689 114.878 29.6689C117.429 29.6689 118.117 31.9368 118.117 33.3542C118.117 33.6376 118.077 33.8806 118.077 34.0021H112.529V34.0426ZM116.7 33.0302C116.7 32.1393 116.335 30.7219 114.716 30.7219C113.258 30.7219 112.65 32.0583 112.529 33.0302H116.7Z" fill="#011638"/>
<path d="M8.45172 20.6387C10.912 20.6387 12.9064 18.6443 12.9064 16.184C12.9064 13.7238 10.912 11.7294 8.45172 11.7294C5.99148 11.7294 3.99707 13.7238 3.99707 16.184C3.99707 18.6443 5.99148 20.6387 8.45172 20.6387Z" fill="#011638"/>
<path d="M8.45172 37.2423C10.912 37.2423 12.9064 35.2479 12.9064 32.7877C12.9064 30.3274 10.912 28.333 8.45172 28.333C5.99148 28.333 3.99707 30.3274 3.99707 32.7877C3.99707 35.2479 5.99148 37.2423 8.45172 37.2423Z" fill="#011638"/>
<path d="M23.8404 37.2423C26.3006 37.2423 28.295 35.2479 28.295 32.7877C28.295 30.3274 26.3006 28.333 23.8404 28.333C21.3802 28.333 19.3857 30.3274 19.3857 32.7877C19.3857 35.2479 21.3802 37.2423 23.8404 37.2423Z" fill="#011638"/>
</g>
<defs>
<clipPath id="clip0_2156_787">
<rect width="114" height="28" fill="white" transform="translate(4 10)"/>
</clipPath>
</defs>
</svg>
