<svg fill="none" height="48" viewBox="0 0 71 48" width="71" xmlns="http://www.w3.org/2000/svg"><g fill="#011638"><path d="m66.507 10.873h-39.3794v6.5633h39.3794z"/><path d="m9.00056 10.873h-5.00056v6.5633h5.00056z"/><path d="m24.3148 10.873h-12.5014v6.5633h12.5014z"/><path d="m37.9516 27.2501c0-1.5419-.5209-2.792-1.521-3.5838-1.0209-.8125-2.2086-1.0105-3.9692-1.0105h-5.3443v14.2516h2.8961v-11.6784h2.5524c.7188 0 1.2501.0938 1.5939.3021.5105.3021.8126.8543.8126 1.7294 0 1.4897-.9168 2.0106-2.1148 2.0106h-1.9273v2.5837h1.1564l3.0211 5.0734h3.3546l-3.3546-5.5527c1.9482-.5834 2.8441-2.2085 2.8441-4.1254z"/><path d="m46.7443 28.844c-2.0524-.7084-4.3755-.7918-4.3755-2.3545 0-1.0001.9167-1.4689 2.219-1.4689 1.2814 0 2.4169.1146 4.3442.6251v-2.5836c-1.6564-.4688-2.8545-.6355-4.4172-.6355-2.8232 0-5.2089 1.1251-5.2089 3.99 0 2.2607 1.1251 3.4066 3.3546 4.1671 1.9794.6772 4.2192.8126 4.2192 2.3441 0 1.1459-1.1147 1.6251-2.7191 1.6251-1.5626 0-2.5419-.125-4.5317-.6563v2.5941c1.6668.5 3.0628.6354 4.688.6354 3.5421 0 5.6152-1.5418 5.6152-4.4067-.0104-2.2711-1.4897-3.292-3.1878-3.8754z"/><path d="m62.7148 22.6558-5.0839 14.262h2.7607l3.2295-9.0635h.0417v9.0635h2.8441v-14.262z"/><path d="m58.6206 31.5318-3.3233-8.876h-3.8442v14.2516h2.8128v-9.0531h.0417l2.8753 7.6884z"/></g></svg>