<svg width="181" height="48" viewBox="0 0 181 48" fill="none" xmlns="http://www.w3.org/2000/svg">
<g clip-path="url(#clip0_2156_887)">
<mask id="mask0_2156_887" style="mask-type:luminance" maskUnits="userSpaceOnUse" x="4" y="11" width="173" height="25">
<path d="M177 11.8738H4V35.972H177V11.8738Z" fill="white"/>
</mask>
<g mask="url(#mask0_2156_887)">
<path d="M57.232 23.9236C57.232 20.31 57.232 16.6958 57.232 13.0822C57.232 12.9678 57.2282 12.8522 57.24 12.739C57.2769 12.3777 57.4676 12.1883 57.8314 12.1883C60.9449 12.1883 64.0597 12.1465 67.1727 12.2127C69.3436 12.259 71.4095 12.8209 73.2941 13.9405C75.6413 15.3356 77.2296 17.3453 78.0228 19.955C78.8773 22.7673 78.8561 25.5907 77.8497 28.3549C76.5533 31.916 73.9517 34.0875 70.3525 35.1239C69.0329 35.504 67.6796 35.6509 66.3113 35.6552C63.5722 35.664 60.833 35.6584 58.0945 35.6565C57.9595 35.6565 57.8232 35.6496 57.6907 35.6277C57.4495 35.5884 57.2982 35.4421 57.2588 35.199C57.2375 35.0665 57.2332 34.9295 57.2332 34.7951C57.232 31.1709 57.232 27.5467 57.232 23.9224V23.9236ZM61.8807 31.5641C63.249 31.5641 64.5911 31.5765 65.9325 31.5584C66.5344 31.5503 67.1414 31.5216 67.7352 31.4322C69.6374 31.1453 71.2607 30.3358 72.449 28.7756C73.2841 27.6785 73.7135 26.4196 73.8561 25.0601C74.0336 23.3624 73.8686 21.7058 73.0972 20.1619C71.8682 17.7022 69.753 16.5383 67.1082 16.3345C65.4205 16.2045 63.7166 16.2789 62.0201 16.2626C61.9807 16.2626 61.9407 16.2764 61.8807 16.287V31.5641Z" fill="#011638"/>
<path d="M28.2418 23.9577C28.2693 17.8869 32.5049 12.9562 38.4913 12.0542C41.2036 11.6454 43.8345 11.9092 46.3193 13.1081C49.886 14.829 52.0306 17.6843 52.7526 21.5586C53.3589 24.814 52.8608 27.9088 51.013 30.7061C49.2365 33.3946 46.7012 35.0091 43.5701 35.6517C40.2416 36.335 37.0274 35.9605 34.0689 34.2209C30.7616 32.2763 28.8863 29.344 28.3775 25.5429C28.3075 25.0178 28.2856 24.4859 28.2418 23.9577ZM32.9681 24.164C33.0343 24.6197 33.0762 25.2997 33.2368 25.951C34.1139 29.511 37.2242 31.8262 40.9011 31.6968C42.97 31.6243 44.7746 30.9167 46.1892 29.3884C47.9726 27.4613 48.5458 25.1434 48.1401 22.5893C47.2325 16.8717 41.3505 14.7502 36.9655 17.0899C34.262 18.5326 33.0925 20.9473 32.9681 24.164Z" fill="#011638"/>
<path d="M87.5494 28.9071C87.5494 29.0695 87.5494 29.1915 87.5494 29.3134C87.5494 31.1567 87.5494 33.0001 87.5494 34.8441C87.5494 35.4942 87.387 35.6574 86.7362 35.6579C85.7362 35.6592 84.7369 35.6604 83.7367 35.6579C83.0916 35.6561 82.9229 35.4854 82.9229 34.841C82.9229 27.5606 82.9229 20.2803 82.9229 12.9999C82.9229 12.3442 83.0817 12.1861 83.7317 12.1861C86.3457 12.1861 88.9609 12.1642 91.5745 12.1929C93.6085 12.2154 95.5398 12.6761 97.256 13.8175C99.5196 15.3227 100.637 17.4812 100.777 20.1665C100.883 22.1562 100.432 23.9908 99.1687 25.5735C97.9303 27.1262 96.2714 28.0063 94.3821 28.4989C93.2787 28.7864 92.1534 28.9089 91.0143 28.9077C89.8801 28.9064 88.7459 28.9071 87.5494 28.9071ZM87.5689 24.7753C87.6457 24.7859 87.7063 24.8002 87.7661 24.8002C88.8696 24.8015 89.9747 24.8371 91.0757 24.7877C91.7346 24.7584 92.412 24.6758 93.0394 24.4802C95.9545 23.5701 96.5972 20.7985 95.6311 18.7957C94.868 17.2111 93.4783 16.471 91.8017 16.3316C90.4363 16.2179 89.0571 16.2779 87.6836 16.2629C87.6465 16.2629 87.6093 16.2872 87.5689 16.301V24.7753Z" fill="#011638"/>
<path d="M176.1 25.6772C176.114 25.6597 176.123 25.631 176.123 25.5953C176.123 24.3052 176.123 23.015 176.123 21.7255C176.123 21.6317 176.131 21.5217 176.21 21.4698C176.249 21.4441 176.299 21.4392 176.346 21.436C176.476 21.4279 176.606 21.4298 176.736 21.4411C176.807 21.4473 176.885 21.4592 176.934 21.5104C176.991 21.5692 176.995 21.6598 176.995 21.7417C177.003 23.4976 177.001 25.2534 176.991 27.0087C176.991 27.0986 176.989 27.1912 176.958 27.2756C176.907 27.4118 176.77 27.4837 176.629 27.4568C176.476 27.4287 176.354 27.2993 176.257 27.1868C175.078 25.8035 173.899 24.4202 172.72 23.0369C172.718 24.3871 172.717 25.7378 172.714 27.088C172.714 27.1799 172.708 27.2855 172.634 27.3399C172.582 27.3781 172.514 27.3787 172.45 27.3781C172.318 27.3762 172.186 27.375 172.055 27.3731C171.997 27.3724 171.933 27.3693 171.893 27.3281C171.852 27.2874 171.849 27.2231 171.85 27.1656C171.852 25.3903 171.852 23.6157 171.854 21.8405C171.854 21.7411 171.859 21.636 171.896 21.5429C171.942 21.4304 172.046 21.3466 172.171 21.3554C172.297 21.3642 172.406 21.4436 172.493 21.526C172.658 21.6842 172.797 21.8736 172.945 22.048C173.3 22.4693 173.655 22.89 174.01 23.3113C174.365 23.7326 174.721 24.1533 175.076 24.5745C175.38 24.9346 175.684 25.2947 175.987 25.6547C176.031 25.7066 176.074 25.7085 176.1 25.6772Z" fill="#011638"/>
<path d="M136.185 27.4487C134.384 27.4474 133.074 26.1653 133.076 24.4083C133.078 22.6581 134.407 21.3597 136.189 21.3648C137.979 21.3698 139.276 22.6574 139.274 24.4289C139.273 26.1785 137.973 27.4499 136.185 27.4487ZM136.154 26.6354C137.411 26.6498 138.355 25.7253 138.367 24.4683C138.381 23.1756 137.471 22.2017 136.231 22.1824C134.969 22.163 133.986 23.1218 133.971 24.3902C133.956 25.6516 134.898 26.6211 136.154 26.6354Z" fill="#011638"/>
<path d="M115.138 27.4487C113.342 27.4487 112.02 26.1603 112.021 24.412C112.022 22.6686 113.358 21.3622 115.136 21.3647C116.931 21.3678 118.22 22.648 118.219 24.4264C118.219 26.1835 116.928 27.4493 115.138 27.4487ZM115.105 26.6354C116.365 26.6498 117.317 25.7078 117.329 24.437C117.341 23.1881 116.402 22.2023 115.183 22.1823C113.92 22.161 112.943 23.1181 112.928 24.3914C112.912 25.6597 113.845 26.621 115.105 26.6354Z" fill="#011638"/>
<path d="M166.588 27.4487C164.783 27.4512 163.468 26.1772 163.465 24.4239C163.463 22.6699 164.778 21.3703 166.562 21.3648C168.351 21.3591 169.664 22.6512 169.663 24.4145C169.663 26.1723 168.372 27.4462 166.588 27.4487ZM166.57 26.6354C167.833 26.6329 168.769 25.686 168.768 24.4108C168.767 23.1513 167.806 22.1779 166.565 22.1799C165.322 22.1817 164.372 23.1506 164.372 24.417C164.372 25.6928 165.309 26.6379 166.57 26.6354Z" fill="#011638"/>
<path d="M123.557 25.3579C123.999 26.0029 124.44 26.6467 124.937 27.3725C124.937 27.3725 124.103 27.3913 123.97 27.3625C123.883 27.3437 123.784 27.2431 123.723 27.1562C123.395 26.688 123.085 26.2067 122.748 25.7448C122.678 25.6485 122.524 25.5685 122.404 25.5604C122.044 25.5366 121.681 25.5516 121.282 25.5516C121.282 26.0579 121.301 26.5343 121.288 27.0086C121.284 27.1674 121.29 27.3156 121.133 27.3693C121.069 27.3913 120.954 27.3918 120.801 27.39C120.708 27.3888 120.6 27.3993 120.512 27.3618C120.405 27.3156 120.393 27.1862 120.394 27.0843C120.399 25.2947 120.397 23.5051 120.397 21.7155C120.397 21.6411 120.408 21.5598 120.458 21.5017C120.521 21.4279 120.625 21.4392 120.712 21.4385C121.427 21.4335 122.145 21.4167 122.858 21.4823C123.415 21.5336 123.963 21.7267 124.327 22.1705C124.533 22.4224 124.659 22.7293 124.716 23.0488C124.895 24.0596 124.558 24.7715 123.655 25.2884C123.627 25.3035 123.604 25.3241 123.557 25.3579ZM121.283 24.7465C121.767 24.7465 122.205 24.7765 122.638 24.7396C123.318 24.6815 123.798 24.214 123.834 23.6338C123.877 22.9363 123.554 22.4231 122.887 22.2974C122.376 22.2012 121.804 22.2186 121.283 22.2186V22.4749C121.283 23.2219 121.283 23.9688 121.283 24.7465Z" fill="#011638"/>
<path d="M145.86 27.375C145.591 27.375 145.319 27.3938 145.054 27.365C144.954 27.3543 144.842 27.2493 144.776 27.1581C144.445 26.6918 144.135 26.2099 143.798 25.7479C143.728 25.651 143.576 25.5691 143.456 25.561C143.096 25.5366 142.733 25.5522 142.336 25.5522C142.336 26.066 142.325 26.553 142.342 27.0387C142.35 27.2887 142.285 27.3918 142.014 27.3806C141.39 27.3556 141.452 27.4588 141.452 26.8055C141.449 25.1397 141.456 23.4739 141.446 21.808C141.444 21.5348 141.503 21.4154 141.808 21.4305C142.556 21.4673 143.311 21.4173 144.052 21.5011C145.013 21.6098 145.629 22.2187 145.771 23.0563C145.942 24.0589 145.587 24.7947 144.693 25.2934C144.665 25.3085 144.64 25.3259 144.6 25.3504C145.044 25.9979 145.487 26.643 145.929 27.2881C145.906 27.3163 145.884 27.345 145.86 27.3731V27.375ZM142.35 24.7959C142.915 24.7578 143.451 24.7677 143.968 24.6734C144.53 24.5702 144.869 24.104 144.888 23.5613C144.91 22.9706 144.624 22.4612 144.074 22.3418C143.518 22.2218 142.934 22.2274 142.35 22.1768V24.7959Z" fill="#011638"/>
<path d="M16.0086 25.988C16.0079 25.2541 16.0079 24.5202 16.0073 23.7864C16.0073 23.4195 16.0073 23.0525 16.0061 22.6856C16.0061 22.5019 16.0061 22.3187 16.0054 22.1349C16.0054 21.9668 16.0192 21.7905 16.0004 21.6229C15.9835 21.468 15.8585 21.4554 15.7284 21.4511C15.5703 21.4461 15.3934 21.433 15.2415 21.4848C15.1909 21.5023 15.1541 21.538 15.1428 21.5911C15.1259 21.6736 15.129 21.7592 15.1265 21.8436L15.1209 22.885C15.1209 23.2488 15.1221 23.6126 15.1221 23.9764C13.9588 23.9764 12.8306 23.9764 11.6842 23.9764C11.6842 23.5714 11.6848 23.1663 11.6848 22.7613C11.6848 22.5618 11.6867 22.3618 11.6836 22.1624C11.6804 21.9686 11.7073 21.7517 11.6579 21.563C11.6217 21.4242 11.471 21.433 11.3542 21.4305C11.2591 21.4285 11.1641 21.4342 11.0691 21.4323C10.8678 21.428 10.7853 21.4992 10.786 21.6998C10.7885 23.5019 10.7891 25.3047 10.786 27.1068C10.786 27.3062 10.8603 27.3818 11.0647 27.3769C11.2285 27.3731 11.3679 27.3843 11.5336 27.3356C11.7123 27.2825 11.6804 26.9455 11.6836 26.7668C11.6886 26.2561 11.6848 25.746 11.6848 25.2353V24.8002H15.1228C15.1228 25.4735 15.1171 26.1273 15.1246 26.7812C15.1259 26.9125 15.0672 27.2043 15.1509 27.3143C15.1784 27.3506 15.2265 27.3656 15.2715 27.3694C15.4303 27.3831 15.5929 27.3731 15.7517 27.3762C15.9404 27.38 16.011 27.31 16.0104 27.1218C16.0098 26.7437 16.0091 26.3661 16.0086 25.988Z" fill="#011638"/>
<path d="M22.4775 27.2825C22.35 27.3975 22.1081 27.3731 21.9562 27.3731C21.7724 27.3731 21.5887 27.3731 21.4049 27.3731C20.6698 27.3731 19.9353 27.3713 19.2002 27.3756C19.0902 27.3762 18.9795 27.3768 18.8695 27.3781C18.6407 27.38 18.5626 27.3144 18.5639 27.0781C18.572 25.2979 18.572 23.5182 18.5639 21.738C18.5626 21.5086 18.6301 21.4292 18.8645 21.4311C19.9884 21.4411 21.1129 21.4404 22.2375 21.4311C22.4613 21.4292 22.5213 21.5111 22.5213 21.723C22.5213 22.2375 22.53 22.2375 22.0175 22.2375C21.1749 22.2375 20.3323 22.2375 19.4665 22.2375V23.9664C19.7002 23.9664 19.9353 23.9664 20.1703 23.9664C20.7323 23.9664 21.2948 23.9714 21.8568 23.9645C22.0681 23.962 22.1506 24.0333 22.1431 24.2552C22.1399 24.3508 22.1431 24.4421 22.1431 24.4421C22.1381 24.6815 22.09 24.7703 21.8337 24.7646C21.0542 24.7484 20.2747 24.7584 19.4696 24.7584V26.5917C20.2998 26.5917 21.1198 26.5893 21.9399 26.5917C22.2012 26.5924 22.4488 26.5686 22.5219 26.7324C22.5556 26.808 22.5594 26.8874 22.5619 26.9675C22.5663 27.1306 22.5457 27.2219 22.4863 27.2743C22.4831 27.2768 22.4806 27.28 22.4775 27.2825Z" fill="#011638"/>
<path d="M127.95 25.5857C127.948 26.0869 127.948 26.5883 127.946 27.0896C127.946 27.2071 127.916 27.3409 127.786 27.3722C127.669 27.4003 127.546 27.3978 127.426 27.3953C127.328 27.3934 127.232 27.3965 127.144 27.3378C127.044 27.2715 127.044 27.0771 127.045 26.9828C127.046 26.8233 127.055 26.6639 127.055 26.5039C127.055 26.2283 127.055 25.9526 127.054 25.6769C127.054 25.1256 127.052 24.5743 127.052 24.0229C127.052 23.2784 127.051 22.5346 127.051 21.7902C127.051 21.6882 127.056 21.5738 127.131 21.5051C127.199 21.4432 127.3 21.4395 127.392 21.4401C127.776 21.4413 128.161 21.442 128.545 21.4432C129.296 21.4451 130.106 21.4657 130.705 21.9195C131.351 22.4084 131.581 23.336 131.345 24.1105C131.236 24.4699 131.035 24.8055 130.743 25.0437C130.37 25.35 129.878 25.4738 129.397 25.5188C128.916 25.5637 128.43 25.5813 127.95 25.5857ZM127.96 24.7793C128.522 24.7793 129.035 24.7605 129.541 24.6762C130.13 24.5786 130.494 24.1017 130.511 23.5379C130.53 22.9565 130.192 22.4409 129.597 22.3265C129.068 22.2246 128.575 22.2345 127.96 22.2345V24.7793Z" fill="#011638"/>
<path d="M150.675 21.7317C150.576 21.4985 150.452 21.4304 150.21 21.4266C149.959 21.4229 149.849 21.516 149.753 21.7404C149.004 23.5094 148.241 25.2722 147.483 27.0374C147.444 27.1274 147.423 27.2243 147.391 27.3206C148.134 27.4975 148.263 27.433 148.524 26.7911C148.586 26.6373 148.657 26.4861 148.71 26.3285C148.758 26.1836 148.83 26.1173 148.998 26.1198C149.81 26.1291 150.621 26.1185 151.433 26.1323C151.524 26.1342 151.652 26.2279 151.694 26.3135C151.827 26.5829 151.919 26.8718 152.043 27.1468C152.081 27.2324 152.162 27.3524 152.234 27.36C152.486 27.3861 152.743 27.3699 153.059 27.3699L150.674 21.7323L150.675 21.7317ZM149.107 25.3453C149.471 24.4683 149.822 23.6219 150.209 22.6887C150.591 23.6126 150.942 24.4627 151.308 25.3453H149.107Z" fill="#011638"/>
<path d="M108.643 27.4475C107.015 27.4475 105.859 26.5531 105.55 25.0547C105.153 23.1345 106.451 21.4655 108.408 21.3705C109.075 21.3379 109.71 21.4405 110.312 21.7455C110.405 21.7931 110.515 21.8649 110.515 21.9818C110.515 22.0881 110.45 22.1837 110.393 22.2681C110.343 22.3425 110.297 22.4625 110.223 22.5156C110.132 22.5813 110.018 22.5325 109.931 22.485C109.318 22.1493 108.662 22.1037 107.995 22.275C106.923 22.55 106.292 23.5001 106.405 24.641C106.518 25.7823 107.343 26.5674 108.483 26.6224C109.001 26.6474 109.504 26.5849 109.963 26.333C110.055 26.283 110.166 26.2493 110.25 26.3305C110.32 26.3987 110.365 26.488 110.408 26.5756C110.446 26.6543 110.507 26.7418 110.515 26.8306C110.525 26.9481 110.422 27.0212 110.329 27.0693C109.799 27.3419 109.235 27.4563 108.643 27.4469L108.643 27.4475Z" fill="#011638"/>
<path d="M8.98253 21.6651C8.9794 21.607 8.9769 21.5432 8.93627 21.4963C8.87002 21.4194 8.76562 21.4376 8.67811 21.4376C7.25167 21.4363 5.76273 21.4451 4.33628 21.4301C4.03624 21.427 3.99311 21.5545 4.00186 21.8045C4.00999 22.0458 3.98561 22.2364 4.34878 22.2364C4.96199 22.2364 6.03776 22.2396 6.03776 22.2396L6.03338 27.0621C6.03214 27.3034 6.08714 27.3622 6.34968 27.3771C6.43781 27.3821 6.54345 27.3734 6.60533 27.3727C6.936 27.3684 6.94413 27.2928 6.94038 26.9783C6.92538 25.5207 6.93351 24.0629 6.93351 22.6052V22.2389L8.70812 22.2302C8.89752 22.2227 8.95002 22.2133 8.9719 22.052C8.9819 21.9802 8.98627 21.737 8.98253 21.6651Z" fill="#011638"/>
<path d="M156.526 22.2375V22.9263C156.526 24.2997 156.521 25.673 156.532 27.0463C156.534 27.2788 156.437 27.3776 156.201 27.3826C156.056 27.3857 155.871 27.3907 155.788 27.3488C155.602 27.2551 155.643 26.9931 155.643 26.8313C155.639 25.4267 155.641 24.0221 155.641 22.6176C155.641 22.5057 155.641 22.3932 155.641 22.2381C155.329 22.2381 155.017 22.24 154.704 22.24C154.441 22.24 154.212 22.2469 153.916 22.2294C153.823 22.2237 153.712 22.2175 153.654 22.1319C153.619 22.0807 153.615 22.0043 153.609 21.9444C153.594 21.8199 153.599 21.6575 153.665 21.5443C153.741 21.4106 153.992 21.4381 154.151 21.4381C154.685 21.4374 155.219 21.4362 155.752 21.4355C156.485 21.4355 157.219 21.4368 157.952 21.4418C158.12 21.4431 158.386 21.4161 158.486 21.5893C158.521 21.6506 158.524 21.7237 158.521 21.7931C158.519 21.8625 158.526 21.9425 158.514 22.0144C158.503 22.0812 158.466 22.1338 158.42 22.18C158.356 22.2425 158.218 22.2363 158.137 22.2381C157.944 22.2432 157.752 22.2363 157.559 22.2363C157.215 22.2363 156.871 22.2381 156.527 22.2381L156.526 22.2375Z" fill="#011638"/>
<path d="M161.278 24.4237C161.278 25.3088 161.27 26.1933 161.282 27.0784C161.285 27.3109 161.211 27.3872 160.979 27.3803C160.848 27.3765 160.713 27.4022 160.582 27.3797C160.498 27.3653 160.425 27.3103 160.403 27.2253C160.392 27.1821 160.392 27.1372 160.392 27.0922C160.394 26.8359 160.399 26.579 160.4 26.3227C160.4 26.0476 160.401 25.7732 160.402 25.4982C160.402 24.9569 160.402 24.4156 160.402 23.8742C160.402 23.3298 160.401 22.7853 160.397 22.2409C160.397 22.0933 160.396 21.9458 160.394 21.7983C160.393 21.6689 160.4 21.4933 160.544 21.4539C160.635 21.4289 160.722 21.4289 160.81 21.4308C160.896 21.432 160.954 21.4264 161.039 21.4376C161.097 21.4452 161.174 21.447 161.218 21.4877C161.278 21.5433 161.277 21.6364 161.28 21.7114C161.291 21.9783 161.276 22.2628 161.275 22.5291C161.274 22.7954 161.274 23.0773 161.275 23.3516C161.276 23.7085 161.276 24.0661 161.276 24.423L161.278 24.4237Z" fill="#011638"/>
</g>
</g>
<defs>
<clipPath id="clip0_2156_887">
<rect width="173" height="24.2523" fill="white" transform="translate(4 11.8738)"/>
</clipPath>
</defs>
</svg>
